<?xml version="1.0" encoding="UTF-8" standalone="no"?>
<svg
   xmlns:dc="http://purl.org/dc/elements/1.1/"
   xmlns:cc="http://creativecommons.org/ns#"
   xmlns:rdf="http://www.w3.org/1999/02/22-rdf-syntax-ns#"
   xmlns:svg="http://www.w3.org/2000/svg"
   xmlns="http://www.w3.org/2000/svg"
   xmlns:xlink="http://www.w3.org/1999/xlink"
   xmlns:sodipodi="http://sodipodi.sourceforge.net/DTD/sodipodi-0.dtd"
   xmlns:inkscape="http://www.inkscape.org/namespaces/inkscape"
   width="512.9408pt"
   height="696.60938pt"
   viewBox="0 0 512.9408 696.60937"
   version="1.2"
   id="svg417"
   sodipodi:docname="dog-boss-path-bottom.svg"
   inkscape:version="1.0.2 (e86c870879, 2021-01-15, custom)">
  <metadata
     id="metadata421">
    <rdf:RDF>
      <cc:Work
         rdf:about="">
        <dc:format>image/svg+xml</dc:format>
        <dc:type
           rdf:resource="http://purl.org/dc/dcmitype/StillImage" />
      </cc:Work>
    </rdf:RDF>
  </metadata>
  <sodipodi:namedview
     pagecolor="#ffffff"
     bordercolor="#666666"
     borderopacity="1"
     objecttolerance="10"
     gridtolerance="10"
     guidetolerance="10"
     inkscape:pageopacity="0"
     inkscape:pageshadow="2"
     inkscape:window-width="2560"
     inkscape:window-height="1017"
     id="namedview419"
     showgrid="false"
     inkscape:zoom="0.66875"
     inkscape:cx="960"
     inkscape:cy="448.62558"
     inkscape:window-x="-8"
     inkscape:window-y="-8"
     inkscape:window-maximized="1"
     inkscape:current-layer="svg417" />
  <defs
     id="defs232">
    <clipPath
       id="clip1">
      <path
         d="M 0,113.39063 H 513 V 810 H 0 Z m 0,0"
         id="path2" />
    </clipPath>
    <clipPath
       id="clip2">
      <path
         d="m 299,737 h 63 v 61 h -63 z m 0,0"
         id="path5" />
    </clipPath>
    <clipPath
       id="clip3">
      <path
         d="m 246.24609,724.60937 90.56641,-46.91796 45.88672,88.5664 -90.56641,46.92188 z m 0,0"
         id="path8" />
    </clipPath>
    <clipPath
       id="clip4">
      <path
         d="m 246.24609,724.60937 90.56641,-46.91796 45.88672,88.5664 -90.56641,46.92188 z m 0,0"
         id="path11" />
    </clipPath>
    <clipPath
       id="clip5">
      <path
         d="m 267,748 h 31 v 28 h -31 z m 0,0"
         id="path14" />
    </clipPath>
    <clipPath
       id="clip6">
      <path
         d="m 246.24609,724.60937 90.56641,-46.91796 45.88672,88.5664 -90.56641,46.92188 z m 0,0"
         id="path17" />
    </clipPath>
    <clipPath
       id="clip7">
      <path
         d="m 246.24609,724.60937 90.56641,-46.91796 45.88672,88.5664 -90.56641,46.92188 z m 0,0"
         id="path20" />
    </clipPath>
    <clipPath
       id="clip8">
      <path
         d="m 273,710 h 33 v 38 h -33 z m 0,0"
         id="path23" />
    </clipPath>
    <clipPath
       id="clip9">
      <path
         d="m 246.24609,724.60937 90.56641,-46.91796 45.88672,88.5664 -90.56641,46.92188 z m 0,0"
         id="path26" />
    </clipPath>
    <clipPath
       id="clip10">
      <path
         d="m 246.24609,724.60937 90.56641,-46.91796 45.88672,88.5664 -90.56641,46.92188 z m 0,0"
         id="path29" />
    </clipPath>
    <clipPath
       id="clip11">
      <path
         d="m 304,694 h 30 v 39 h -30 z m 0,0"
         id="path32" />
    </clipPath>
    <clipPath
       id="clip12">
      <path
         d="m 246.24609,724.60937 90.56641,-46.91796 45.88672,88.5664 -90.56641,46.92188 z m 0,0"
         id="path35" />
    </clipPath>
    <clipPath
       id="clip13">
      <path
         d="m 246.24609,724.60937 90.56641,-46.91796 45.88672,88.5664 -90.56641,46.92188 z m 0,0"
         id="path38" />
    </clipPath>
    <clipPath
       id="clip14">
      <path
         d="m 336,709 h 25 v 34 h -25 z m 0,0"
         id="path41" />
    </clipPath>
    <clipPath
       id="clip15">
      <path
         d="m 246.24609,724.60937 90.56641,-46.91796 45.88672,88.5664 -90.56641,46.92188 z m 0,0"
         id="path44" />
    </clipPath>
    <clipPath
       id="clip16">
      <path
         d="m 246.24609,724.60937 90.56641,-46.91796 45.88672,88.5664 -90.56641,46.92188 z m 0,0"
         id="path47" />
    </clipPath>
    <clipPath
       id="clip17">
      <path
         d="m 263,746 h 33 v 30 h -33 z m 0,0"
         id="path50" />
    </clipPath>
    <clipPath
       id="clip18">
      <path
         d="m 246.24609,724.60937 90.56641,-46.91796 45.88672,88.5664 -90.56641,46.92188 z m 0,0"
         id="path53" />
    </clipPath>
    <clipPath
       id="clip19">
      <path
         d="m 246.24609,724.60937 90.56641,-46.91796 45.88672,88.5664 -90.56641,46.92188 z m 0,0"
         id="path56" />
    </clipPath>
    <clipPath
       id="clip20">
      <path
         d="m 269,708 h 36 v 40 h -36 z m 0,0"
         id="path59" />
    </clipPath>
    <clipPath
       id="clip21">
      <path
         d="m 246.24609,724.60937 90.56641,-46.91796 45.88672,88.5664 -90.56641,46.92188 z m 0,0"
         id="path62" />
    </clipPath>
    <clipPath
       id="clip22">
      <path
         d="m 246.24609,724.60937 90.56641,-46.91796 45.88672,88.5664 -90.56641,46.92188 z m 0,0"
         id="path65" />
    </clipPath>
    <clipPath
       id="clip23">
      <path
         d="m 300,692 h 33 v 41 h -33 z m 0,0"
         id="path68" />
    </clipPath>
    <clipPath
       id="clip24">
      <path
         d="m 246.24609,724.60937 90.56641,-46.91796 45.88672,88.5664 -90.56641,46.92188 z m 0,0"
         id="path71" />
    </clipPath>
    <clipPath
       id="clip25">
      <path
         d="m 246.24609,724.60937 90.56641,-46.91796 45.88672,88.5664 -90.56641,46.92188 z m 0,0"
         id="path74" />
    </clipPath>
    <clipPath
       id="clip26">
      <path
         d="m 332,707 h 27 v 36 h -27 z m 0,0"
         id="path77" />
    </clipPath>
    <clipPath
       id="clip27">
      <path
         d="m 246.24609,724.60937 90.56641,-46.91796 45.88672,88.5664 -90.56641,46.92188 z m 0,0"
         id="path80" />
    </clipPath>
    <clipPath
       id="clip28">
      <path
         d="m 246.24609,724.60937 90.56641,-46.91796 45.88672,88.5664 -90.56641,46.92188 z m 0,0"
         id="path83" />
    </clipPath>
    <clipPath
       id="clip29">
      <path
         d="m 346,749 h 5 v 4 h -5 z m 0,0"
         id="path86" />
    </clipPath>
    <clipPath
       id="clip30">
      <path
         d="m 246.24609,724.60937 90.56641,-46.91796 45.88672,88.5664 -90.56641,46.92188 z m 0,0"
         id="path89" />
    </clipPath>
    <clipPath
       id="clip31">
      <path
         d="m 246.24609,724.60937 90.56641,-46.91796 45.88672,88.5664 -90.56641,46.92188 z m 0,0"
         id="path92" />
    </clipPath>
    <clipPath
       id="clip32">
      <path
         d="m 296,736 h 65 v 63 h -65 z m 0,0"
         id="path95" />
    </clipPath>
    <clipPath
       id="clip33">
      <path
         d="m 246.24609,724.60937 90.56641,-46.91796 45.88672,88.5664 -90.56641,46.92188 z m 0,0"
         id="path98" />
    </clipPath>
    <clipPath
       id="clip34">
      <path
         d="m 246.24609,724.60937 90.56641,-46.91796 45.88672,88.5664 -90.56641,46.92188 z m 0,0"
         id="path101" />
    </clipPath>
    <filter
       id="alpha"
       filterUnits="objectBoundingBox"
       x="0"
       y="0"
       width="1"
       height="1">
      <feColorMatrix
         type="matrix"
         in="SourceGraphic"
         values="0 0 0 0 1 0 0 0 0 1 0 0 0 0 1 0 0 0 1 0"
         id="feColorMatrix104" />
    </filter>
    <mask
       id="mask0">
      <g
         filter="url(#alpha)"
         id="g109">
        <rect
           x="0"
           y="0"
           width="1440"
           height="810"
           style="fill:#000000;fill-opacity:0.498;stroke:none"
           id="rect107" />
      </g>
    </mask>
    <clipPath
       id="clip36">
      <path
         d="M 0,78 H 201 V 707 H 0 Z m 0,0"
         id="path112" />
    </clipPath>
    <clipPath
       id="clip37">
      <path
         d="M 18.554688,962.65625 -255.24219,80.941406 -27.472656,10.210938 246.32422,891.92969 Z m 0,0"
         id="path115" />
    </clipPath>
    <clipPath
       id="clip38">
      <path
         d="M 18.554688,962.65625 -255.24219,80.941406 -27.472656,10.210938 246.32422,891.92969 Z m 0,0"
         id="path118" />
    </clipPath>
    <clipPath
       id="clip35">
      <rect
         x="0"
         y="0"
         width="250"
         height="707"
         id="rect121" />
    </clipPath>
    <g
       id="surface5"
       clip-path="url(#clip35)">
      <g
         clip-path="url(#clip36)"
         clip-rule="nonzero"
         id="g130">
        <g
           clip-path="url(#clip37)"
           clip-rule="nonzero"
           id="g128">
          <g
             clip-path="url(#clip38)"
             clip-rule="nonzero"
             id="g126">
            <path
               style="fill:#f5f3f5;fill-opacity:1;fill-rule:nonzero;stroke:none"
               d="m -252.38281,83.558594 c 1.0039,0.8125 93.78515,74.910156 132.78125,160.953126 4.74218,9.85937 8.84375,19.97656 12.30859,30.35547 3.46484,10.3789 6.26172,20.93359 8.38672,31.66406 2.128906,10.73437 3.574219,21.55469 4.332031,32.46875 0.757813,10.91797 0.828125,21.83594 0.203125,32.75781 -0.476562,35.57813 -0.964844,66.27735 32.253906,113.55078 20.433594,29.08594 52.917969,46.16407 86.953126,63.39063 53.53125,27.57031 114.210932,58.80469 150.984372,146.16015 36.76953,87.35938 8.21875,212.02735 8,213.34766 l 5.80078,1.32813 c -0.32031,-1.02735 25.55078,-111.34375 -1.39843,-198.1211 -1.89063,-6.23437 -4.1211,-12.34375 -6.69141,-18.32812 C 143.89062,603.74219 82.164062,571.95703 27.769531,544.03125 -5.808594,526.66406 -37.4375,510.32031 -57.03125,482.72656 c -32.113281,-45.73828 -31.605469,-75.5664 -31.039062,-110.04297 0.628906,-11.21875 0.550781,-22.42968 -0.238282,-33.63672 -0.789062,-11.20703 -2.28125,-22.3164 -4.476562,-33.33593 -2.195313,-11.01563 -5.078125,-21.85157 -8.644534,-32.50391 -3.5664,-10.65234 -7.79297,-21.03516 -12.67578,-31.15234 C -153.89453,154.25391 -247.72266,79.605469 -248.69141,78.90625 Z m 0,0"
               id="path124" />
          </g>
        </g>
      </g>
    </g>
    <clipPath
       id="clip39">
      <path
         d="m 138,731 h 61 v 61 h -61 z m 0,0"
         id="path133" />
    </clipPath>
    <clipPath
       id="clip40">
      <path
         d="m 74.304688,746.61719 67.996092,-76.03125 74.35156,66.49609 -67.99609,76.03125 z m 0,0"
         id="path136" />
    </clipPath>
    <clipPath
       id="clip41">
      <path
         d="m 74.304688,746.61719 67.996092,-76.03125 74.35156,66.49609 -67.99609,76.03125 z m 0,0"
         id="path139" />
    </clipPath>
    <clipPath
       id="clip42">
      <path
         d="m 104,756 h 33 v 25 h -33 z m 0,0"
         id="path142" />
    </clipPath>
    <clipPath
       id="clip43">
      <path
         d="m 74.304688,746.61719 67.996092,-76.03125 74.35156,66.49609 -67.99609,76.03125 z m 0,0"
         id="path145" />
    </clipPath>
    <clipPath
       id="clip44">
      <path
         d="m 74.304688,746.61719 67.996092,-76.03125 74.35156,66.49609 -67.99609,76.03125 z m 0,0"
         id="path148" />
    </clipPath>
    <clipPath
       id="clip45">
      <path
         d="m 97,720 h 37 v 33 H 97 Z m 0,0"
         id="path151" />
    </clipPath>
    <clipPath
       id="clip46">
      <path
         d="m 74.304688,746.61719 67.996092,-76.03125 74.35156,66.49609 -67.99609,76.03125 z m 0,0"
         id="path154" />
    </clipPath>
    <clipPath
       id="clip47">
      <path
         d="m 74.304688,746.61719 67.996092,-76.03125 74.35156,66.49609 -67.99609,76.03125 z m 0,0"
         id="path157" />
    </clipPath>
    <clipPath
       id="clip48">
      <path
         d="m 121,693 h 35 v 36 h -35 z m 0,0"
         id="path160" />
    </clipPath>
    <clipPath
       id="clip49">
      <path
         d="m 74.304688,746.61719 67.996092,-76.03125 74.35156,66.49609 -67.99609,76.03125 z m 0,0"
         id="path163" />
    </clipPath>
    <clipPath
       id="clip50">
      <path
         d="m 74.304688,746.61719 67.996092,-76.03125 74.35156,66.49609 -67.99609,76.03125 z m 0,0"
         id="path166" />
    </clipPath>
    <clipPath
       id="clip51">
      <path
         d="m 159,696 h 25 v 32 h -25 z m 0,0"
         id="path169" />
    </clipPath>
    <clipPath
       id="clip52">
      <path
         d="m 74.304688,746.61719 67.996092,-76.03125 74.35156,66.49609 -67.99609,76.03125 z m 0,0"
         id="path172" />
    </clipPath>
    <clipPath
       id="clip53">
      <path
         d="m 74.304688,746.61719 67.996092,-76.03125 74.35156,66.49609 -67.99609,76.03125 z m 0,0"
         id="path175" />
    </clipPath>
    <clipPath
       id="clip54">
      <path
         d="m 100,755 h 35 v 27 h -35 z m 0,0"
         id="path178" />
    </clipPath>
    <clipPath
       id="clip55">
      <path
         d="m 74.304688,746.61719 67.996092,-76.03125 74.35156,66.49609 -67.99609,76.03125 z m 0,0"
         id="path181" />
    </clipPath>
    <clipPath
       id="clip56">
      <path
         d="m 74.304688,746.61719 67.996092,-76.03125 74.35156,66.49609 -67.99609,76.03125 z m 0,0"
         id="path184" />
    </clipPath>
    <clipPath
       id="clip57">
      <path
         d="m 93,719 h 40 v 35 H 93 Z m 0,0"
         id="path187" />
    </clipPath>
    <clipPath
       id="clip58">
      <path
         d="m 74.304688,746.61719 67.996092,-76.03125 74.35156,66.49609 -67.99609,76.03125 z m 0,0"
         id="path190" />
    </clipPath>
    <clipPath
       id="clip59">
      <path
         d="m 74.304688,746.61719 67.996092,-76.03125 74.35156,66.49609 -67.99609,76.03125 z m 0,0"
         id="path193" />
    </clipPath>
    <clipPath
       id="clip60">
      <path
         d="m 117,692 h 37 v 39 h -37 z m 0,0"
         id="path196" />
    </clipPath>
    <clipPath
       id="clip61">
      <path
         d="m 74.304688,746.61719 67.996092,-76.03125 74.35156,66.49609 -67.99609,76.03125 z m 0,0"
         id="path199" />
    </clipPath>
    <clipPath
       id="clip62">
      <path
         d="m 74.304688,746.61719 67.996092,-76.03125 74.35156,66.49609 -67.99609,76.03125 z m 0,0"
         id="path202" />
    </clipPath>
    <clipPath
       id="clip63">
      <path
         d="m 155,695 h 27 v 34 h -27 z m 0,0"
         id="path205" />
    </clipPath>
    <clipPath
       id="clip64">
      <path
         d="m 74.304688,746.61719 67.996092,-76.03125 74.35156,66.49609 -67.99609,76.03125 z m 0,0"
         id="path208" />
    </clipPath>
    <clipPath
       id="clip65">
      <path
         d="m 74.304688,746.61719 67.996092,-76.03125 74.35156,66.49609 -67.99609,76.03125 z m 0,0"
         id="path211" />
    </clipPath>
    <clipPath
       id="clip66">
      <path
         d="m 177,733 h 5 v 4 h -5 z m 0,0"
         id="path214" />
    </clipPath>
    <clipPath
       id="clip67">
      <path
         d="m 74.304688,746.61719 67.996092,-76.03125 74.35156,66.49609 -67.99609,76.03125 z m 0,0"
         id="path217" />
    </clipPath>
    <clipPath
       id="clip68">
      <path
         d="m 74.304688,746.61719 67.996092,-76.03125 74.35156,66.49609 -67.99609,76.03125 z m 0,0"
         id="path220" />
    </clipPath>
    <clipPath
       id="clip69">
      <path
         d="m 134,730 h 63 v 64 h -63 z m 0,0"
         id="path223" />
    </clipPath>
    <clipPath
       id="clip70">
      <path
         d="m 74.304688,746.61719 67.996092,-76.03125 74.35156,66.49609 -67.99609,76.03125 z m 0,0"
         id="path226" />
    </clipPath>
    <clipPath
       id="clip71">
      <path
         d="m 74.304688,746.61719 67.996092,-76.03125 74.35156,66.49609 -67.99609,76.03125 z m 0,0"
         id="path229" />
    </clipPath>
  </defs>
  <g
     id="surface1"
     transform="translate(0,-113.39063)">
    <g
       clip-path="url(#clip1)"
       clip-rule="nonzero"
       id="g236">
      <path
         style="fill:#4fbfc5;fill-opacity:1;fill-rule:nonzero;stroke:none"
         d="m -230.67969,113.16797 c 82.05078,32.42578 227.253909,121.8125 221.437502,347.55859 -7.894531,314.08985 548.816408,76.91016 521.187498,568.94144 -13.29297,0 -565.22656,0 -742.625,0 z m 0,0"
         id="path234" />
    </g>
    <g
       clip-path="url(#clip2)"
       clip-rule="nonzero"
       id="g244">
      <g
         clip-path="url(#clip3)"
         clip-rule="nonzero"
         id="g242">
        <g
           clip-path="url(#clip4)"
           clip-rule="nonzero"
           id="g240">
          <path
             style="fill:#ffffff;fill-opacity:1;fill-rule:nonzero;stroke:none"
             d="m 351.48828,782.40234 c 7.98438,-4.89453 19.58203,-18.32812 -3.89453,-33.51562 -22.23047,-14.37891 -32.87891,-10.64063 -32.87891,-10.64063 -2.41797,0.34766 -4.38672,2.26953 -4.38672,2.26953 0,0 -7.3164,4.91407 -10.27343,33 -3.10157,29.45704 17.11328,25.1875 26.0625,21.79688 1.76172,-0.66406 6.66406,-3.70703 6.66406,-3.70703 0,0 4.38281,-3.83985 11.76562,-6.09375 l 6.94141,-3.10938"
             id="path238" />
        </g>
      </g>
    </g>
    <g
       clip-path="url(#clip5)"
       clip-rule="nonzero"
       id="g252">
      <g
         clip-path="url(#clip6)"
         clip-rule="nonzero"
         id="g250">
        <g
           clip-path="url(#clip7)"
           clip-rule="nonzero"
           id="g248">
          <path
             style="fill:#ffffff;fill-opacity:1;fill-rule:nonzero;stroke:none"
             d="m 282.71484,749.26953 c 0,0 20.11328,4.21484 13.21094,19.12109 -6.90625,14.91016 -23.75,2.4336 -27.27344,-7.09375 -3.51953,-9.53125 -0.35547,-16.02343 14.0625,-12.02734"
             id="path246" />
        </g>
      </g>
    </g>
    <g
       clip-path="url(#clip8)"
       clip-rule="nonzero"
       id="g260">
      <g
         clip-path="url(#clip9)"
         clip-rule="nonzero"
         id="g258">
        <g
           clip-path="url(#clip10)"
           clip-rule="nonzero"
           id="g256">
          <path
             style="fill:#ffffff;fill-opacity:1;fill-rule:nonzero;stroke:none"
             d="m 293.92969,715.98437 c 0,0 21.1289,12.6875 7.44922,26.85547 -13.6836,14.16797 -27.86329,-6.58984 -28.10547,-18.76562 -0.24219,-12.17578 5.89843,-18.28516 20.65625,-8.08985"
             id="path254" />
        </g>
      </g>
    </g>
    <g
       clip-path="url(#clip11)"
       clip-rule="nonzero"
       id="g268">
      <g
         clip-path="url(#clip12)"
         clip-rule="nonzero"
         id="g266">
        <g
           clip-path="url(#clip13)"
           clip-rule="nonzero"
           id="g264">
          <path
             style="fill:#ffffff;fill-opacity:1;fill-rule:nonzero;stroke:none"
             d="m 304.60547,710.45312 c 0,0 -1.82422,24.58204 17.64062,21.57422 19.46485,-3.0039 10.6875,-26.55859 0.87891,-33.78125 -9.80469,-7.21875 -18.33594,-5.72656 -18.51953,12.21094"
             id="path262" />
        </g>
      </g>
    </g>
    <g
       clip-path="url(#clip14)"
       clip-rule="nonzero"
       id="g276">
      <g
         clip-path="url(#clip15)"
         clip-rule="nonzero"
         id="g274">
        <g
           clip-path="url(#clip16)"
           clip-rule="nonzero"
           id="g272">
          <path
             style="fill:#ffffff;fill-opacity:1;fill-rule:nonzero;stroke:none"
             d="m 338.5,720.36719 c 0,0 -8.15625,18.86328 8.00391,21.82031 16.16015,2.95703 15.6875,-17.99609 9.93359,-26.37109 -5.75391,-8.3711 -12.88281,-9.53125 -17.9375,4.55078"
             id="path270" />
        </g>
      </g>
    </g>
    <g
       clip-path="url(#clip17)"
       clip-rule="nonzero"
       id="g284">
      <g
         clip-path="url(#clip18)"
         clip-rule="nonzero"
         id="g282">
        <g
           clip-path="url(#clip19)"
           clip-rule="nonzero"
           id="g280">
          <path
             style="fill:#30878c;fill-opacity:1;fill-rule:nonzero;stroke:none"
             d="m 279.82422,749.38281 c 4.80859,1.01563 10.41015,3.58594 12.86328,8.04688 2.15625,3.92187 0.66016,8.72265 -1.75391,12.15625 -2.08593,2.96875 -5.45703,4.25781 -8.99218,3.55859 -3.51563,-0.69531 -6.6875,-2.80469 -9.26954,-5.20703 -2.53906,-2.36328 -4.70703,-5.24609 -5.83593,-8.54688 -0.97266,-2.85156 -1.96094,-7.05468 0.45703,-9.48828 1.15625,-1.16406 2.89844,-1.55078 4.47656,-1.64843 2.71484,-0.16797 5.45313,0.42187 8.05469,1.1289 1.3125,0.35938 1.95703,-1.65625 0.63672,-2.01562 -4.16407,-1.13672 -9.78125,-2.38672 -13.67578,0.24609 -3.05469,2.0625 -3.39844,5.84375 -2.8086,9.20313 1.32813,7.58203 7.16406,14.10546 14.05078,17.26171 3.21875,1.47657 6.91797,1.91797 10.21875,0.47657 3.94141,-1.71875 6.40625,-6.17969 7.29688,-10.19922 0.875,-3.94141 -0.26953,-7.76563 -3.02344,-10.6875 -2.29687,-2.4336 -5.39844,-4.05078 -8.49609,-5.21875 -1.15625,-0.4336 -2.35157,-0.82422 -3.5586,-1.07813 -1.32422,-0.28125 -1.97656,1.73047 -0.64062,2.01172"
             id="path278" />
        </g>
      </g>
    </g>
    <g
       clip-path="url(#clip20)"
       clip-rule="nonzero"
       id="g292">
      <g
         clip-path="url(#clip21)"
         clip-rule="nonzero"
         id="g290">
        <g
           clip-path="url(#clip22)"
           clip-rule="nonzero"
           id="g288">
          <path
             style="fill:#30878c;fill-opacity:1;fill-rule:nonzero;stroke:none"
             d="m 290.79297,715.98828 c 3.38281,2.03516 6.46094,4.88672 8.75,8.08594 1.75,2.4414 2.92578,5.3789 2.80469,8.41406 -0.16016,3.96094 -2.69922,7.38672 -5.5586,9.92578 -11.87109,10.52735 -24.17969,-7.34765 -24.99219,-18.33984 -0.28125,-3.85156 0.0156,-9.72656 3.63672,-12.11719 1.74219,-1.15234 3.91016,-1.11328 5.875,-0.66797 3.44922,0.78516 6.59766,2.71875 9.48438,4.69922 1.1289,0.76953 2.25781,-1.01953 1.13281,-1.78906 -3.88281,-2.66406 -8.6875,-5.57422 -13.59766,-5.29297 -3.5039,0.19922 -6,2.40625 -7.35156,5.53906 -1.46875,3.39063 -1.61719,7.56641 -1.12109,11.1875 0.4414,3.25 1.60937,6.42969 3.08594,9.34766 2.88671,5.69922 7.74218,11.4414 14.32421,12.63281 7.33204,1.32422 14.64844,-5.37109 16.67188,-11.98828 2.68359,-8.77344 -5.03125,-17.22266 -12.01172,-21.42578 -1.16797,-0.70313 -2.30078,1.08203 -1.13281,1.78906"
             id="path286" />
        </g>
      </g>
    </g>
    <g
       clip-path="url(#clip23)"
       clip-rule="nonzero"
       id="g300">
      <g
         clip-path="url(#clip24)"
         clip-rule="nonzero"
         id="g298">
        <g
           clip-path="url(#clip25)"
           clip-rule="nonzero"
           id="g296">
          <path
             style="fill:#30878c;fill-opacity:1;fill-rule:nonzero;stroke:none"
             d="m 300.98047,709.50781 c -0.29297,3.98438 0.23437,8.23047 1.48047,12.01172 1,3.03125 2.59765,5.88672 5.08593,7.9375 2.91016,2.40234 6.67579,3.19141 10.37891,2.92969 3.80078,-0.26563 7.71484,-1.39453 10.55859,-4.03516 2.30079,-2.13281 3.47266,-5.125 3.78516,-8.19922 0.67578,-6.66797 -2.42187,-13.625 -6.34375,-18.84375 -1.72266,-2.29687 -3.78906,-4.21484 -6.17187,-5.80468 -2.65235,-1.76954 -5.82032,-3.30469 -9.07813,-3.25391 -8.41406,0.13672 -9.60937,10.96484 -9.69531,17.25781 -0.0195,1.36328 2.08984,1.47266 2.10937,0.10938 0.0625,-4.4336 0.28907,-10.3086 3.6836,-13.64844 2.43359,-2.39844 5.96093,-1.67188 8.77343,-0.42188 6.38672,2.83594 10.77344,8.79297 13.17188,15.19532 2.10547,5.60547 2.61328,12.91406 -2.68359,16.90234 -3.06641,2.3125 -7.57422,2.98047 -11.29688,2.58984 -3.26562,-0.34375 -6.17969,-2.09375 -8.05469,-4.78125 -3.0625,-4.39843 -3.97656,-10.5664 -3.59375,-15.83593 0.10157,-1.36719 -2.01172,-1.46485 -2.10937,-0.10938"
             id="path294" />
        </g>
      </g>
    </g>
    <g
       clip-path="url(#clip26)"
       clip-rule="nonzero"
       id="g308">
      <g
         clip-path="url(#clip27)"
         clip-rule="nonzero"
         id="g306">
        <g
           clip-path="url(#clip28)"
           clip-rule="nonzero"
           id="g304">
          <path
             style="fill:#30878c;fill-opacity:1;fill-rule:nonzero;stroke:none"
             d="m 334.92578,719.15234 c -2.01562,4.6875 -3.01562,10.71485 -1.21094,15.58985 1.51172,4.08593 5.11719,6.48828 9.25,7.42968 3.94532,0.89844 8.23438,0.57032 11.36328,-2.21484 2.71094,-2.41406 3.8125,-6.16406 4.15235,-9.66406 0.36328,-3.8125 -0.21094,-7.79688 -1.48828,-11.39453 -2.06641,-5.80469 -8.92188,-14.73047 -15.76563,-9.79688 -3.24219,2.33594 -4.98437,6.42188 -6.30078,10.05078 -0.46875,1.28516 1.55078,1.92188 2.01563,0.64063 1.3164,-3.6211 3.53125,-9.38281 8.0039,-9.99219 3.46094,-0.46484 6.54688,3.42578 8.19141,5.92578 1.99609,3.03125 2.91406,6.7461 3.24219,10.32031 0.33203,3.55469 -0.082,7.49219 -2,10.57032 -1.96094,3.14843 -5.41407,4.15234 -8.94922,3.82422 -4.13282,-0.37891 -8.04297,-2.3086 -9.6875,-6.27735 -1.81641,-4.3789 -0.61719,-10.15234 1.19922,-14.37109 0.53906,-1.25391 -1.48438,-1.88281 -2.01563,-0.64063"
             id="path302" />
        </g>
      </g>
    </g>
    <g
       clip-path="url(#clip29)"
       clip-rule="nonzero"
       id="g316">
      <g
         clip-path="url(#clip30)"
         clip-rule="nonzero"
         id="g314">
        <g
           clip-path="url(#clip31)"
           clip-rule="nonzero"
           id="g312">
          <path
             style="fill:#30878c;fill-opacity:1;fill-rule:nonzero;stroke:none"
             d="m 349.94922,750.51562 c -0.50781,-0.40234 -1.04297,-0.76953 -1.57422,-1.14453 -0.47266,-0.32812 -1.16406,-0.13672 -1.45703,0.33203 -0.32031,0.50391 -0.14453,1.125 0.32812,1.45704 0.53125,0.375 1.06641,0.74218 1.57813,1.14453 0.44922,0.35937 1.17187,0.12109 1.45703,-0.32813 0.33203,-0.52344 0.12109,-1.10156 -0.33203,-1.46094"
             id="path310" />
        </g>
      </g>
    </g>
    <g
       clip-path="url(#clip32)"
       clip-rule="nonzero"
       id="g324">
      <g
         clip-path="url(#clip33)"
         clip-rule="nonzero"
         id="g322">
        <g
           clip-path="url(#clip34)"
           clip-rule="nonzero"
           id="g320">
          <path
             style="fill:#30878c;fill-opacity:1;fill-rule:nonzero;stroke:none"
             d="m 345.87891,747.65625 c -7.85157,-5.05859 -16.59766,-9.66406 -25.96485,-10.97656 -3.44531,-0.48047 -7.42578,-0.5 -10.55469,1.24218 -0.71875,0.39844 -1.41406,0.90625 -2.01562,1.46875 0.41406,-0.38671 0.0586,-0.0469 -0.0898,0.0703 -0.21485,0.16797 -0.41016,0.36328 -0.59766,0.55859 -1.04688,1.10156 -1.875,2.39844 -2.60547,3.72656 -3.79297,6.90235 -5.33984,15.04297 -6.49609,22.73828 -0.86719,5.77344 -1.59375,11.67188 -0.82813,17.5 0.47656,3.63282 1.71875,7.29297 4.20703,10.05079 4.00391,4.44531 10.35547,4.91406 15.90235,3.98046 2.51953,-0.41796 4.97656,-1.16015 7.36718,-2.05078 1.69532,-0.63281 3.27735,-1.65234 4.82813,-2.57422 0.80859,-0.47656 1.67187,-0.92187 2.39844,-1.51953 1.23437,-1.00781 2.60547,-1.85547 3.99218,-2.63672 1.16797,-0.65625 2.37891,-1.23437 3.60938,-1.76562 1.23047,-0.52734 2.56641,-0.83594 3.78125,-1.37891 2.29297,-1.02734 4.58203,-2.05468 6.875,-3.07812 0.99219,-0.44531 1.9375,-1.28125 2.78516,-1.94922 1.03515,-0.8125 2,-1.71484 2.89843,-2.68359 1.8711,-2.02344 3.39063,-4.37891 4.2461,-7.01172 2.32422,-7.17578 -1.8711,-13.91016 -7.03125,-18.6211 -0.9961,-0.91015 -2.5586,0.51563 -1.55078,1.4375 3.30078,3.01563 6.28906,6.6836 7.01171,11.22266 0.50782,3.17969 -0.5039,6.33203 -2.21875,8.98437 -1.57812,2.44141 -3.78515,4.51563 -6.18359,6.14063 -2.14062,1.46094 -4.76172,2.31641 -7.11719,3.37109 -1.89062,0.84766 -3.89453,1.39844 -5.77734,2.27735 -2.02344,0.9375 -3.94141,2.08203 -5.75391,3.375 -0.3789,0.26953 -0.74609,0.55468 -1.10547,0.84765 -0.25,0.20703 0.14454,-0.082 0.0899,-0.0469 -0.19531,0.11719 -0.39063,0.23828 -0.58985,0.35937 -1.60937,0.97657 -3.23046,1.94532 -4.90625,2.80469 -2.17968,1.11719 -4.69921,1.75391 -7.12109,2.24609 -2.68359,0.54688 -5.44531,0.75391 -8.16406,0.32422 -2.69141,-0.41797 -5.15625,-1.70703 -6.95313,-3.75781 -2.48437,-2.84375 -3.35547,-6.85156 -3.63672,-10.51172 -0.46093,-5.99609 0.50782,-12.1289 1.50391,-18.02344 0.75781,-4.46875 1.77734,-8.91796 3.26172,-13.20312 0.83203,-2.40625 1.82812,-4.76953 3.17578,-6.9375 0.37891,-0.61328 0.79688,-1.20703 1.25781,-1.76953 -0.19531,0.23828 0.22266,-0.25 0.32032,-0.35156 0.11718,-0.1211 0.24218,-0.24219 0.36718,-0.35547 0.52344,-0.47266 -0.23828,0.25781 0.32813,-0.27735 1.14453,-1.07031 2.43359,-1.53515 3.90234,-1.98047 0.31641,-0.0977 0.64844,-0.16015 0.97656,-0.21484 0.83594,-0.14062 1.16407,-0.15234 1.96094,-0.17187 3.60547,-0.0937 7.19531,0.69921 10.61328,1.77734 6.57422,2.0625 12.69922,5.41406 18.47266,9.13281 1.14844,0.73828 2.27734,-1.05078 1.12891,-1.78906"
             id="path318" />
        </g>
      </g>
    </g>
    <use
       xlink:href="#surface5"
       transform="translate(0,103)"
       mask="url(#mask0)"
       id="use326"
       x="0"
       y="0"
       width="100%"
       height="100%" />
    <g
       clip-path="url(#clip39)"
       clip-rule="nonzero"
       id="g334">
      <g
         clip-path="url(#clip40)"
         clip-rule="nonzero"
         id="g332">
        <g
           clip-path="url(#clip41)"
           clip-rule="nonzero"
           id="g330">
          <path
             style="fill:#ffffff;fill-opacity:1;fill-rule:nonzero;stroke:none"
             d="m 193.21094,763.26172 c 5.72656,-7.41406 11.79687,-24.09375 -15.54297,-29.94922 -25.88672,-5.54688 -34.51953,1.73047 -34.51953,1.73047 -2.13672,1.18359 -3.28907,3.67969 -3.28907,3.67969 0,0 -5.09375,7.1914 2.11719,34.49609 7.5586,28.64062 24.94141,17.46875 32.10156,11.12109 1.41016,-1.24609 4.91407,-5.83203 4.91407,-5.83203 0,0 2.73437,-5.14453 8.83593,-9.8789 l 5.38282,-5.36719"
             id="path328" />
        </g>
      </g>
    </g>
    <g
       clip-path="url(#clip42)"
       clip-rule="nonzero"
       id="g342">
      <g
         clip-path="url(#clip43)"
         clip-rule="nonzero"
         id="g340">
        <g
           clip-path="url(#clip44)"
           clip-rule="nonzero"
           id="g338">
          <path
             style="fill:#ffffff;fill-opacity:1;fill-rule:nonzero;stroke:none"
             d="m 117.15234,756.71484 c 0,0 20.30078,-3.20703 19.14063,13.1836 -1.16016,16.38672 -21.33594,10.71093 -28.01172,3.05078 -6.67969,-7.65625 -6.02344,-14.85156 8.87109,-16.23438"
             id="path336" />
        </g>
      </g>
    </g>
    <g
       clip-path="url(#clip45)"
       clip-rule="nonzero"
       id="g350">
      <g
         clip-path="url(#clip46)"
         clip-rule="nonzero"
         id="g348">
        <g
           clip-path="url(#clip47)"
           clip-rule="nonzero"
           id="g346">
          <path
             style="fill:#ffffff;fill-opacity:1;fill-rule:nonzero;stroke:none"
             d="m 115.81641,721.61719 c 0,0 24.25781,4.35547 16.5,22.45703 -7.75782,18.10156 -28.38672,3.73828 -32.937504,-7.5586 -4.550781,-11.29687 -0.980468,-19.1875 16.437504,-14.89843"
             id="path344" />
        </g>
      </g>
    </g>
    <g
       clip-path="url(#clip48)"
       clip-rule="nonzero"
       id="g358">
      <g
         clip-path="url(#clip49)"
         clip-rule="nonzero"
         id="g356">
        <g
           clip-path="url(#clip50)"
           clip-rule="nonzero"
           id="g354">
          <path
             style="fill:#ffffff;fill-opacity:1;fill-rule:nonzero;stroke:none"
             d="m 123.82813,712.65625 c 0,0 7.02734,23.625 24.15624,13.89844 17.125,-9.72266 0.5586,-28.6211 -11.17578,-31.89063 -11.73046,-3.26562 -19.17578,1.16016 -12.98046,17.99219"
             id="path352" />
        </g>
      </g>
    </g>
    <g
       clip-path="url(#clip51)"
       clip-rule="nonzero"
       id="g366">
      <g
         clip-path="url(#clip52)"
         clip-rule="nonzero"
         id="g364">
        <g
           clip-path="url(#clip53)"
           clip-rule="nonzero"
           id="g362">
          <path
             style="fill:#ffffff;fill-opacity:1;fill-rule:nonzero;stroke:none"
             d="m 159.03906,709.87891 c 0,0 -0.92578,20.53125 15.23047,17.55859 16.15625,-2.97656 8.26953,-22.39844 -0.082,-28.17969 -8.35156,-5.78515 -15.42969,-4.33594 -15.14844,10.6211"
             id="path360" />
        </g>
      </g>
    </g>
    <g
       clip-path="url(#clip54)"
       clip-rule="nonzero"
       id="g374">
      <g
         clip-path="url(#clip55)"
         clip-rule="nonzero"
         id="g372">
        <g
           clip-path="url(#clip56)"
           clip-rule="nonzero"
           id="g370">
          <path
             style="fill:#30878c;fill-opacity:1;fill-rule:nonzero;stroke:none"
             d="m 114.49219,757.84766 c 4.85547,-0.75782 11.0039,-0.34766 14.88281,2.95312 3.41016,2.90234 3.71484,7.91797 2.67578,11.98438 -0.89453,3.51953 -3.58594,5.91796 -7.14062,6.52343 -3.53125,0.59766 -7.2461,-0.24609 -10.51563,-1.57812 -3.21094,-1.3086 -6.26172,-3.23047 -8.48828,-5.91797 -1.92187,-2.31641 -4.33984,-5.89453 -2.94531,-9.02734 0.66797,-1.5 2.16015,-2.48047 3.60156,-3.13282 2.47656,-1.125 5.24609,-1.54297 7.92969,-1.80468 1.35547,-0.13282 1.24219,-2.24219 -0.11719,-2.11329 -4.30078,0.42188 -9.99609,1.2461 -12.69922,5.08594 -2.124999,3.01563 -1.10156,6.67188 0.64063,9.60156 3.93359,6.61719 11.70703,10.64454 19.26562,11.14844 3.53516,0.23438 7.14844,-0.66797 9.72656,-3.18359 3.07032,-3.00781 3.78907,-8.05469 3.19532,-12.125 -0.58204,-3.9961 -3.01172,-7.16797 -6.6211,-8.91797 -3.01172,-1.46094 -6.48437,-1.87109 -9.79687,-1.85938 -1.23438,0.004 -2.49219,0.0625 -3.71094,0.25391 -1.33594,0.20703 -1.23047,2.32031 0.11719,2.10938"
             id="path368" />
        </g>
      </g>
    </g>
    <g
       clip-path="url(#clip57)"
       clip-rule="nonzero"
       id="g382">
      <g
         clip-path="url(#clip58)"
         clip-rule="nonzero"
         id="g380">
        <g
           clip-path="url(#clip59)"
           clip-rule="nonzero"
           id="g378">
          <path
             style="fill:#30878c;fill-opacity:1;fill-rule:nonzero;stroke:none"
             d="m 112.88672,722.73047 c 3.88281,0.70312 7.77344,2.27734 11.05078,4.45312 2.50391,1.66016 4.64453,3.98828 5.60937,6.86719 1.25782,3.76563 0.0977,7.86719 -1.67187,11.25391 -7.35937,14.05859 -25.21484,1.71875 -29.875,-8.26563 -1.632812,-3.5 -3.441406,-9.09765 -0.90625,-12.62109 1.21875,-1.69141 3.26172,-2.42578 5.25391,-2.70703 3.50781,-0.49219 7.13672,0.19531 10.53906,1.01953 1.32422,0.32031 1.74609,-1.75 0.42187,-2.07422 -4.57812,-1.10547 -10.10156,-2.125 -14.593746,-0.11719 -3.203125,1.4336 -4.75,4.38281 -4.902344,7.78906 -0.167969,3.69532 1.175781,7.64844 2.921875,10.85547 1.570313,2.88282 3.789065,5.44141 6.207035,7.64453 4.72265,4.30079 11.30078,7.94532 17.8789,6.71875 7.32422,-1.36328 11.78516,-10.21875 11.32813,-17.125 -0.60938,-9.15625 -10.82422,-14.3125 -18.83985,-15.76562 -1.33984,-0.23828 -1.76953,1.82812 -0.42187,2.07422"
             id="path376" />
        </g>
      </g>
    </g>
    <g
       clip-path="url(#clip60)"
       clip-rule="nonzero"
       id="g390">
      <g
         clip-path="url(#clip61)"
         clip-rule="nonzero"
         id="g388">
        <g
           clip-path="url(#clip62)"
           clip-rule="nonzero"
           id="g386">
          <path
             style="fill:#30878c;fill-opacity:1;fill-rule:nonzero;stroke:none"
             d="m 120.10547,713.05859 c 1.14453,3.82422 3.14453,7.60938 5.65234,10.70313 2.00782,2.47656 4.51563,4.57812 7.57031,5.60937 3.57813,1.21094 7.375,0.61328 10.7461,-0.94531 3.45703,-1.59766 6.71484,-4.04297 8.4375,-7.52344 1.39062,-2.80859 1.42578,-6.02343 0.625,-9.00781 -1.73828,-6.47656 -7.10547,-11.87891 -12.625,-15.36328 -2.42578,-1.53516 -5.03516,-2.59375 -7.83203,-3.23438 -3.10547,-0.70703 -6.61328,-1.02343 -9.64063,0.1875 -7.8164,3.11329 -5.08984,13.65625 -2.93359,19.57422 0.46484,1.28125 2.48047,0.63282 2.01172,-0.64843 -1.51563,-4.16407 -3.39453,-9.73829 -1.40625,-14.06641 1.42578,-3.10547 4.98047,-3.67969 8.05078,-3.51172 6.98047,0.38281 13.19531,4.39453 17.71484,9.52344 3.95703,4.49609 7.02735,11.14844 3.49219,16.75781 -2.04688,3.25 -6.01953,5.47266 -9.64063,6.42969 -3.17578,0.83984 -6.51953,0.24219 -9.22656,-1.60938 -4.42578,-3.01953 -7.47265,-8.46093 -8.98437,-13.52343 -0.39063,-1.3125 -2.40235,-0.65625 -2.01172,0.64843"
             id="path384" />
        </g>
      </g>
    </g>
    <g
       clip-path="url(#clip63)"
       clip-rule="nonzero"
       id="g398">
      <g
         clip-path="url(#clip64)"
         clip-rule="nonzero"
         id="g396">
        <g
           clip-path="url(#clip65)"
           clip-rule="nonzero"
           id="g394">
          <path
             style="fill:#30878c;fill-opacity:1;fill-rule:nonzero;stroke:none"
             d="m 155.26172,710.01562 c -0.21875,5.09766 0.98828,11.08985 4.40625,15.00391 2.86328,3.28125 7.08984,4.24609 11.28515,3.66016 4.00782,-0.5625 7.90235,-2.39063 9.83594,-6.10938 1.67578,-3.21484 1.375,-7.11328 0.44922,-10.5039 -1.01172,-3.69532 -2.96484,-7.21485 -5.4375,-10.125 -3.99219,-4.69141 -13.57031,-10.60157 -18.21484,-3.5586 -2.20313,3.33203 -2.37891,7.77344 -2.32422,11.63281 0.0195,1.36719 2.13281,1.2461 2.11328,-0.11718 -0.0547,-3.85157 -0.0312,-10.02735 3.93359,-12.17969 3.07032,-1.66797 7.33594,0.87109 9.76172,2.625 2.94141,2.125 5.1211,5.27344 6.69922,8.49609 1.57031,3.20703 2.58203,7.03125 1.88281,10.59375 -0.71484,3.63672 -3.58593,5.80469 -7.00781,6.75391 -3.99609,1.11328 -8.33984,0.69531 -11.28516,-2.42578 -3.25,-3.44922 -4.18359,-9.27344 -3.98437,-13.86328 0.0586,-1.36328 -2.05469,-1.23047 -2.11328,0.11718"
             id="path392" />
        </g>
      </g>
    </g>
    <g
       clip-path="url(#clip66)"
       clip-rule="nonzero"
       id="g406">
      <g
         clip-path="url(#clip67)"
         clip-rule="nonzero"
         id="g404">
        <g
           clip-path="url(#clip68)"
           clip-rule="nonzero"
           id="g402">
          <path
             style="fill:#30878c;fill-opacity:1;fill-rule:nonzero;stroke:none"
             d="m 180.44922,734 c -0.6211,-0.19531 -1.25,-0.35156 -1.87891,-0.51172 -0.55859,-0.14062 -1.13672,0.28516 -1.24609,0.82813 -0.1211,0.58593 0.26562,1.10546 0.82422,1.24609 0.6289,0.16016 1.26172,0.3125 1.8789,0.50781 0.55078,0.17578 1.14063,-0.30469 1.25,-0.82422 C 181.39844,734.63672 181,734.17187 180.44922,734"
             id="path400" />
        </g>
      </g>
    </g>
    <g
       clip-path="url(#clip69)"
       clip-rule="nonzero"
       id="g414">
      <g
         clip-path="url(#clip70)"
         clip-rule="nonzero"
         id="g412">
        <g
           clip-path="url(#clip71)"
           clip-rule="nonzero"
           id="g410">
          <path
             style="fill:#30878c;fill-opacity:1;fill-rule:nonzero;stroke:none"
             d="m 175.625,732.77344 c -9.13672,-1.94141 -18.94531,-3.14063 -28.17188,-1.03907 -3.38671,0.77344 -7.11328,2.16797 -9.42578,4.90625 -0.52734,0.62891 -0.99609,1.35157 -1.35937,2.08985 0.25,-0.50781 0.0391,-0.0625 -0.0586,0.0977 -0.14062,0.23438 -0.2539,0.48438 -0.35937,0.73438 -0.58594,1.39844 -0.90234,2.91016 -1.11328,4.41016 -1.09375,7.79687 0.35156,15.95703 2.0039,23.5625 1.24219,5.70312 2.65625,11.47656 5.44141,16.65234 1.73828,3.23047 4.19531,6.20703 7.50391,7.90234 5.32031,2.73438 11.42578,0.91407 16.27734,-1.92578 2.20703,-1.28906 4.24219,-2.85156 6.15625,-4.53515 1.36328,-1.19532 2.47656,-2.71094 3.60156,-4.1211 0.58594,-0.73437 1.23438,-1.45312 1.70313,-2.27344 0.79687,-1.38281 1.77734,-2.65625 2.79687,-3.88281 0.85547,-1.02734 1.78125,-2 2.7461,-2.93359 0.96093,-0.92969 2.10156,-1.69141 3.04297,-2.63281 1.78125,-1.77344 3.55468,-3.54688 5.33593,-5.32032 0.76563,-0.76562 1.35157,-1.88281 1.90625,-2.80468 0.67969,-1.12891 1.26563,-2.31641 1.75782,-3.53907 1.03125,-2.55859 1.61328,-5.29687 1.48046,-8.0625 -0.375,-7.53515 -6.6914,-12.33984 -13.1875,-14.91015 -1.2539,-0.5 -2.20703,1.39062 -0.9375,1.89062 4.15625,1.64844 8.25391,4.01563 10.54297,8.00391 1.60157,2.78906 1.77735,6.09765 1.11328,9.18359 -0.60937,2.84375 -1.9375,5.56641 -3.59765,7.94141 -1.48438,2.12109 -3.62891,3.85547 -5.45703,5.67969 -1.46485,1.46093 -3.14063,2.6875 -4.59375,4.17578 -1.55469,1.59765 -2.94532,3.34765 -4.17578,5.19922 -0.25782,0.39062 -0.50391,0.78125 -0.73438,1.1875 -0.16016,0.28125 0.10547,-0.12891 0.0664,-0.0781 -0.14063,0.17969 -0.28125,0.36328 -0.42188,0.54688 -1.15625,1.48437 -2.32812,2.96484 -3.58984,4.36328 -1.64063,1.8164 -3.77344,3.3125 -5.85938,4.63281 -2.3164,1.46484 -4.82422,2.63281 -7.51562,3.20312 -2.66406,0.5625 -5.42969,0.23438 -7.83594,-1.04687 -3.33203,-1.77344 -5.57031,-5.21094 -7.13281,-8.53516 -2.5625,-5.4375 -3.83594,-11.51953 -4.9961,-17.38281 -0.8789,-4.44531 -1.5039,-8.96484 -1.64062,-13.5 -0.0781,-2.54297 0.0156,-5.10937 0.50391,-7.61328 0.13671,-0.70703 0.3164,-1.41406 0.54687,-2.09766 -0.0977,0.28516 0.12109,-0.3125 0.17578,-0.44531 0.0664,-0.15625 0.14063,-0.3125 0.21485,-0.46484 0.32421,-0.62891 -0.13282,0.32812 0.21093,-0.3711 0.69141,-1.41015 1.73047,-2.30078 2.94141,-3.23828 0.26562,-0.20703 0.55078,-0.3789 0.83984,-0.55078 0.73047,-0.42578 1.03516,-0.55469 1.76953,-0.85547 3.33985,-1.36719 6.97657,-1.90234 10.55469,-2.10937 6.87891,-0.40625 13.79688,0.55078 20.51172,1.97656 1.33203,0.28125 1.75781,-1.78906 0.41797,-2.07031"
             id="path408" />
        </g>
      </g>
    </g>
  </g>
</svg>
