<?xml version="1.0" encoding="UTF-8" standalone="no"?>
<svg
   xmlns:dc="http://purl.org/dc/elements/1.1/"
   xmlns:cc="http://creativecommons.org/ns#"
   xmlns:rdf="http://www.w3.org/1999/02/22-rdf-syntax-ns#"
   xmlns:svg="http://www.w3.org/2000/svg"
   xmlns="http://www.w3.org/2000/svg"
   xmlns:sodipodi="http://sodipodi.sourceforge.net/DTD/sodipodi-0.dtd"
   xmlns:inkscape="http://www.inkscape.org/namespaces/inkscape"
   width="904.9563pt"
   height="726.24756pt"
   viewBox="0 0 904.95629 726.24755"
   version="1.2"
   id="svg23"
   sodipodi:docname="dog-boss-logo.svg"
   inkscape:version="1.0.2 (e86c870879, 2021-01-15, custom)">
  <metadata
     id="metadata27">
    <rdf:RDF>
      <cc:Work
         rdf:about="">
        <dc:format>image/svg+xml</dc:format>
        <dc:type
           rdf:resource="http://purl.org/dc/dcmitype/StillImage" />
      </cc:Work>
    </rdf:RDF>
  </metadata>
  <sodipodi:namedview
     pagecolor="#ffffff"
     bordercolor="#666666"
     borderopacity="1"
     objecttolerance="10"
     gridtolerance="10"
     guidetolerance="10"
     inkscape:pageopacity="0"
     inkscape:pageshadow="2"
     inkscape:window-width="2560"
     inkscape:window-height="1017"
     id="namedview25"
     showgrid="false"
     inkscape:zoom="0.66875"
     inkscape:cx="457.33506"
     inkscape:cy="437.55549"
     inkscape:window-x="-8"
     inkscape:window-y="-8"
     inkscape:window-maximized="1"
     inkscape:current-layer="surface1" />
  <defs
     id="defs8">
    <clipPath
       id="clip1">
      <path
         d="m 274.38672,48.84375 h 879.62108 v 710.25 H 274.38672 Z m 0,0"
         id="path2" />
    </clipPath>
    <clipPath
       id="clip2">
      <path
         d="M 285.94922,50.722656 H 1165.5742 V 760.97266 H 285.94922 Z m 0,0"
         id="path5" />
    </clipPath>
  </defs>
  <g
     id="surface1"
     transform="translate(-263.97855,-43.955818)">
    <rect
       x="263.97855"
       y="43.955818"
       width="904.9563"
       height="726.24756"
       style="fill:#4fbfc5;fill-opacity:1;stroke:none;stroke-width:0.750642"
       id="rect12" />
    <g
       clip-path="url(#clip1)"
       clip-rule="nonzero"
       id="g16">
      <path
         style="fill:#f5f3f5;fill-opacity:1;fill-rule:evenodd;stroke:none"
         d="m 650.44141,500.64453 c 27.42187,-39.78906 100.08593,-39.78906 127.51171,0 -31.92968,-29.22656 -95.58593,-29.22656 -127.51171,0 z m -27.28125,208.44531 c 9.37109,-2.875 18.35937,-6.64453 27.24609,-10.96875 50.40234,-24.54297 77.17578,-24.54297 127.57812,0 8.89063,4.32422 17.875,8.09375 27.25,10.96875 -17.89062,22.57813 -51.95312,37.83203 -91.03906,37.83203 -39.08594,0 -73.14453,-15.2539 -91.03515,-37.83203 z M 371.4375,600.32031 c 3.23047,-28.33203 -6.01953,-60.01172 -19.74609,-91.29297 -26.46094,-60.30859 -68.21094,-115.00781 -69.05469,-178.40625 -0.875,-66.26172 46.01172,-126.53515 100.58984,-159.66015 -59.07812,29.45312 -108.65234,91.26953 -108.83984,159.33984 -0.1836,65.4375 42.02344,123.35156 68,186.1875 11.44531,27.67578 18.8125,55.26172 15.83594,83.17578 -2.44532,22.94922 14.11328,28.89844 32.13281,18.37891 113.98828,-66.52735 79.74609,-272.67969 87.04297,-378.96094 6.53515,-95.12109 41.64843,-162.855468 139.5,-190.234374 C 499.75,55.945312 447.87109,131.08594 447.26562,243.58594 c -0.55859,103.60547 39.53907,295.27734 -64.20703,362.82031 -3.53906,2.30078 -6.96875,3.125 -9.19531,1.88672 -1.89453,-1.0586 -2.92578,-3.59375 -2.42578,-7.97266 z m 685.5156,0 c -3.2265,-28.33203 6.0235,-60.01172 19.7461,-91.29297 26.461,-60.30859 68.2149,-115.00781 69.0586,-178.40625 0.8711,-66.26172 -46.0117,-126.53515 -100.5937,-159.66015 59.082,29.45312 108.6523,91.26953 108.8437,159.33984 0.1836,65.4375 -42.0273,123.35156 -68.0078,186.1875 -11.4336,27.67578 -18.8047,55.26172 -15.832,83.17578 2.4453,22.94922 -14.1094,28.89844 -32.1289,18.37891 C 924.04687,551.51562 958.29297,345.36328 950.99219,239.08203 944.46484,143.96094 909.34766,76.226562 811.49609,48.847656 928.64062,55.945312 980.52344,131.08594 981.125,243.58594 c 0.5625,103.60547 -39.53906,295.27734 64.207,362.82031 6.543,4.25781 12.711,3.44922 11.6211,-6.08594 z M 582.39453,318.54687 c 3.03125,0 5.48828,2.45704 5.48828,5.48829 0,3.03125 -2.45703,5.48828 -5.48828,5.48828 -3.03516,0 -5.49219,-2.45703 -5.49219,-5.48828 0,-3.03125 2.45703,-5.48829 5.49219,-5.48829 z m 18.44531,21.125 c -3.95703,11.46485 -14.84375,19.69922 -27.65234,19.69922 -12.8125,0 -23.69922,-8.23437 -27.65625,-19.69922 5.42578,8.92579 15.77344,14.96094 27.65625,14.96094 11.87891,0 22.23047,-6.03515 27.65234,-14.96094 z m 263.57813,-21.125 c 3.02734,0 5.48828,2.45704 5.48828,5.48829 0,3.03125 -2.46094,5.48828 -5.48828,5.48828 -3.03906,0 -5.4961,-2.45703 -5.4961,-5.48828 0,-3.03125 2.45704,-5.48829 5.4961,-5.48829 z m -36.86328,21.125 c 3.95312,11.46485 14.83984,19.69922 27.65234,19.69922 12.80859,0 23.69922,-8.23437 27.65625,-19.69922 -5.42578,8.92579 -15.77344,14.96094 -27.65625,14.96094 -11.87891,0 -22.23047,-6.03515 -27.65234,-14.96094 z m 83.71875,-15.66406 c -5.16407,-0.72265 -10.21875,-4.34375 -15.09375,-8.33594 -11.25391,-9.21875 -21.33594,-17.16406 -36.21485,-19.54296 -28.75,-4.59766 -53.0664,17.99218 -67.64453,44.85546 16.19531,2.09375 27.79688,9.20704 39.69141,16.3711 10.05469,6.05469 21.98437,8.8125 33.64062,7.01562 16.08985,-2.48047 28.40235,-16.3789 28.40235,-33.15234 0,-2.375 -0.25,-4.6875 -0.71094,-6.92188 4.67187,3.125 14.75391,3.21875 17.92969,-0.28906 z m -394.15235,0 c 5.16016,-0.72265 10.21875,-4.34375 15.08985,-8.33594 11.25781,-9.21875 21.33593,-17.16406 36.21875,-19.54296 28.75,-4.59766 53.0664,17.99218 67.64062,44.85546 -16.19531,2.09375 -27.79297,9.20704 -39.6875,16.3711 -10.05469,6.05469 -21.98828,8.8125 -33.64453,7.01562 -16.08594,-2.48047 -28.40234,-16.3789 -28.40234,-33.15234 0,-2.375 0.24609,-4.6875 0.71875,-6.92188 -4.67578,3.125 -14.75782,3.21875 -17.9336,-0.28906 z m 130.47266,359.59375 c -12.625,6.97266 -25.67578,12.59766 -35.96094,15.19531 -53.46094,13.52735 -90.9414,-15.20312 -78.73828,-72.11718 7.03125,-32.8125 22.48047,-67.86328 24.85938,-100.73828 -7.42969,33.16406 -25.96094,67.66796 -34.56641,99.33593 -18.21094,67.01953 29.51172,100.97657 91.46094,86.13672 0.58593,-0.14062 1.17578,-0.28515 1.76562,-0.43359 14.83203,28.10937 53.01172,48.125 97.78125,48.125 44.77344,0 82.95313,-20.01563 97.78516,-48.125 0.58594,0.14844 1.17578,0.29297 1.76562,0.43359 61.94922,14.83985 109.67188,-19.11719 91.45703,-86.13672 -8.60156,-31.66797 -27.13281,-66.17187 -34.5625,-99.33593 2.375,32.875 17.82422,67.92578 24.85938,100.73828 12.19531,56.91406 -25.28125,85.64453 -78.74609,72.11718 -10.27344,-2.59765 -23.33204,-8.22265 -35.95313,-15.19531 -33.51953,-18.51562 -76.90234,-53.47656 -33.84766,-89.74609 7.07813,-5.96094 13.37891,-11.38281 16.5586,-17.03125 2.9375,-5.21485 3.32422,-9.45313 1.64844,-12.61328 -1.77735,-3.35547 -5.88672,-5.48828 -11.73047,-6.28125 -13.39844,-1.8086 -25.3086,-7.15235 -26.01563,-22.2461 -1,-21.24218 29.25391,-26.02734 32.25,0.34375 1.23828,10.91407 8.29688,15.76953 15.82813,15.57813 7.82031,-0.19922 16.15234,-5.84766 18.99218,-15.8086 3.5625,-12.48046 0.69532,-25.22265 -5.64453,-36.17187 -29.78515,-51.42578 -119.5,-51.42578 -149.28515,0 -6.33985,10.94922 -9.21094,23.69141 -5.64844,36.17187 2.84375,9.96094 11.17187,15.60938 18.99609,15.8086 7.52735,0.1914 14.58985,-4.66406 15.82813,-15.57813 2.99609,-26.37109 33.24609,-21.58593 32.25,-0.34375 -0.70703,15.09375 -12.6211,20.4375 -26.01953,22.2461 -5.84375,0.79297 -9.94922,2.92578 -11.72657,6.28125 -1.67578,3.16015 -1.28906,7.39843 1.64454,12.61328 3.17968,5.64844 9.48437,11.07031 16.5625,17.03125 43.05468,36.26953 -0.32422,71.23047 -33.84766,89.74609"
         id="path14" />
    </g>
    <g
       clip-path="url(#clip2)"
       clip-rule="nonzero"
       id="g20">
      <path
         style="fill:#30878c;fill-opacity:1;fill-rule:evenodd;stroke:none"
         d="m 662.00391,502.52344 c 27.42578,-39.78907 100.08984,-39.78907 127.51171,0 -31.92578,-29.22657 -95.58203,-29.22657 -127.51171,0 z m -27.28125,208.44531 c 9.375,-2.875 18.36328,-6.64453 27.25,-10.97266 50.40234,-24.53906 77.17578,-24.53906 127.57812,0 8.88672,4.32813 17.87109,8.09766 27.25,10.97266 -17.89453,22.57812 -51.95312,37.83203 -91.03906,37.83203 -39.08594,0 -73.14844,-15.25391 -91.03906,-37.83203 z M 383.00391,602.19531 c 3.23046,-28.33203 -6.01954,-60.00781 -19.7461,-91.28906 C 336.79297,450.59375 295.04297,395.89844 294.20312,332.5 c -0.875,-66.26172 46.01172,-126.53516 100.58985,-159.66016 -59.07813,29.44922 -108.65625,91.26953 -108.84375,159.33985 -0.1836,65.4375 42.02734,123.35156 68.0039,186.1875 11.44141,27.67578 18.8086,55.26172 15.83204,83.17187 -2.44532,22.95313 14.11718,28.90235 32.13671,18.38281 113.98829,-66.52734 79.74219,-272.67968 87.04297,-378.96093 6.53125,-95.1211 41.64844,-162.855471 139.4961,-190.234378 -117.14453,7.097657 -169.02344,82.238278 -169.63282,194.738278 -0.55468,103.60547 39.53907,295.27735 -64.20312,362.81641 -3.53906,2.30469 -6.96875,3.125 -9.19922,1.88672 -1.89453,-1.05469 -2.92187,-3.58985 -2.42187,-7.97266 z m 685.51169,0 c -3.2265,-28.33203 6.0235,-60.00781 19.7461,-91.28906 26.4649,-60.3125 68.2188,-115.00781 69.0586,-178.40625 0.875,-66.26172 -46.0117,-126.53516 -100.5898,-159.66016 59.082,29.44922 108.6523,91.26953 108.8398,159.33985 0.1836,65.4375 -42.0273,123.35156 -68.0039,186.1875 -11.4375,27.67578 -18.8086,55.26172 -15.832,83.17187 2.4414,22.95313 -14.1133,28.90235 -32.1328,18.38281 -113.98832,-66.52734 -79.74223,-272.67968 -87.04301,-378.96093 -6.53125,-95.1211 -41.64453,-162.855471 -139.5,-190.234378 117.14844,7.097657 169.02735,82.238278 169.63282,194.738278 0.5625,103.60547 -39.53907,295.27735 64.20699,362.81641 6.5391,4.26172 12.7071,3.45312 11.6172,-6.08594 z M 593.95703,320.42187 c 3.03125,0 5.49219,2.46094 5.49219,5.49219 0,3.03125 -2.46094,5.48828 -5.49219,5.48828 -3.03125,0 -5.48828,-2.45703 -5.48828,-5.48828 0,-3.03125 2.45703,-5.49219 5.48828,-5.49219 z m 18.44922,21.12891 C 608.44922,353.01562 597.5625,361.25 584.75,361.25 c -12.8125,0 -23.69922,-8.23438 -27.65625,-19.69922 5.42578,8.92578 15.77734,14.96094 27.65625,14.96094 11.87891,0 22.23047,-6.03516 27.65625,-14.96094 z m 263.57422,-21.12891 c 3.02734,0 5.48828,2.46094 5.48828,5.49219 0,3.03125 -2.46094,5.48828 -5.48828,5.48828 -3.03516,0 -5.49219,-2.45703 -5.49219,-5.48828 0,-3.03125 2.45703,-5.49219 5.49219,-5.49219 z m -36.86328,21.12891 c 3.95703,11.46484 14.84375,19.69922 27.65234,19.69922 12.8125,0 23.70313,-8.23438 27.65625,-19.69922 -5.42187,8.92578 -15.77344,14.96094 -27.65625,14.96094 -11.87891,0 -22.22656,-6.03516 -27.65234,-14.96094 z m 83.72265,-15.66406 c -5.16406,-0.72266 -10.22265,-4.34375 -15.09375,-8.33594 -11.25781,-9.22266 -21.33984,-17.16406 -36.21484,-19.54297 -28.75391,-4.59765 -53.07031,17.99219 -67.64844,44.85547 16.19922,2.09375 27.80078,9.20313 39.69141,16.37109 10.05469,6.05469 21.98828,8.8086 33.64453,7.01563 16.08594,-2.48047 28.39844,-16.37891 28.39844,-33.15234 0,-2.375 -0.2461,-4.69141 -0.71094,-6.92188 4.67187,3.125 14.75391,3.21484 17.93359,-0.28906 z m -394.15625,0 c 5.16016,-0.72266 10.21875,-4.34375 15.09375,-8.33594 11.25391,-9.22266 21.33594,-17.16406 36.21875,-19.54297 28.75,-4.59765 53.0625,17.99219 67.64063,44.85547 -16.19531,2.09375 -27.79688,9.20313 -39.69141,16.37109 -10.05469,6.05469 -21.98828,8.8086 -33.64062,7.01563 -16.08594,-2.48047 -28.40235,-16.37891 -28.40235,-33.15234 0,-2.375 0.2461,-4.69141 0.71485,-6.92188 -4.67188,3.125 -14.75391,3.21484 -17.9336,-0.28906 z m 130.47266,359.59375 c -12.62109,6.96875 -25.67578,12.59765 -35.95703,15.19531 -53.46094,13.52734 -90.94141,-15.20312 -78.74219,-72.11719 7.03516,-32.8164 22.48438,-67.86328 24.85938,-100.73828 -7.42969,33.16406 -25.96094,67.66797 -34.56641,99.33594 -18.21094,67.01953 29.51172,100.97656 91.46094,86.13672 0.58984,-0.14063 1.17968,-0.28516 1.76562,-0.4336 14.83203,28.10938 53.01172,48.125 97.78516,48.125 44.77344,0 82.94922,-20.01562 97.78125,-48.125 0.58984,0.14844 1.17969,0.29297 1.76562,0.4336 61.95313,14.83984 109.67188,-19.11719 91.46094,-86.13672 -8.60156,-31.66797 -27.13672,-66.17188 -34.56641,-99.33594 2.375,32.875 17.82422,67.92188 24.86329,100.73828 12.19531,56.91407 -25.28125,85.64453 -78.7461,72.11719 -10.27734,-2.59766 -23.33203,-8.22656 -35.95703,-15.19531 -33.51953,-18.51563 -76.90234,-53.47656 -33.84766,-89.7461 7.07813,-5.96093 13.38282,-11.38281 16.5625,-17.03125 2.9375,-5.21484 3.32032,-9.45312 1.64454,-12.61328 -1.77735,-3.35547 -5.88282,-5.49218 -11.72657,-6.28125 -13.39843,-1.8125 -25.3125,-7.15234 -26.01562,-22.24609 -1,-21.24219 29.2539,-26.02734 32.24609,0.34375 1.23828,10.91406 8.30078,15.76953 15.83203,15.57812 7.82032,-0.19921 16.14844,-5.84765 18.99219,-15.80859 3.5625,-12.48047 0.69141,-25.22656 -5.64844,-36.17187 -29.78515,-51.42579 -119.5,-51.42579 -149.28515,0 -6.33985,10.94531 -9.20703,23.6914 -5.64453,36.17187 2.83984,9.96094 11.17187,15.60938 18.99218,15.80859 7.53125,0.19141 14.58985,-4.66406 15.82813,-15.57812 3,-26.37109 33.24609,-21.58594 32.25,-0.34375 -0.70703,15.09375 -12.6211,20.43359 -26.01563,22.24609 -5.84375,0.78907 -9.95312,2.92578 -11.73047,6.28125 -1.67578,3.16016 -1.28906,7.39844 1.64844,12.61328 3.17969,5.64844 9.48047,11.07032 16.5586,17.03125 43.05468,36.26954 -0.32422,71.23047 -33.84766,89.7461"
         id="path18" />
    </g>
  </g>
</svg>
