<?xml version="1.0" encoding="UTF-8" standalone="no"?>
<svg
   xmlns:dc="http://purl.org/dc/elements/1.1/"
   xmlns:cc="http://creativecommons.org/ns#"
   xmlns:rdf="http://www.w3.org/1999/02/22-rdf-syntax-ns#"
   xmlns:svg="http://www.w3.org/2000/svg"
   xmlns="http://www.w3.org/2000/svg"
   xmlns:sodipodi="http://sodipodi.sourceforge.net/DTD/sodipodi-0.dtd"
   xmlns:inkscape="http://www.inkscape.org/namespaces/inkscape"
   width="485.69138mm"
   height="346.27243mm"
   viewBox="0 0 485.69139 346.27244"
   version="1.1"
   id="svg8"
   sodipodi:docname="page-not-found.svg"
   inkscape:version="1.0.2 (e86c870879, 2021-01-15, custom)">
  <defs
     id="defs2">
    <clipPath
       clipPathUnits="userSpaceOnUse"
       id="clipPath36">
      <path
         d="M 0,500 H 500 V 0 H 0 Z"
         id="path34" />
    </clipPath>
    <clipPath
       clipPathUnits="userSpaceOnUse"
       id="clipPath264">
      <path
         d="M 0,500 H 500 V 0 H 0 Z"
         id="path262" />
    </clipPath>
  </defs>
  <sodipodi:namedview
     id="base"
     pagecolor="#ffffff"
     bordercolor="#666666"
     borderopacity="1.0"
     inkscape:pageopacity="1"
     inkscape:pageshadow="2"
     inkscape:zoom="0.35"
     inkscape:cx="883.54779"
     inkscape:cy="679.32837"
     inkscape:document-units="mm"
     inkscape:current-layer="g1204"
     inkscape:document-rotation="0"
     showgrid="false"
     inkscape:window-width="2560"
     inkscape:window-height="1017"
     inkscape:window-x="-8"
     inkscape:window-y="-8"
     inkscape:window-maximized="1"
     inkscape:pagecheckerboard="true" />
  <metadata
     id="metadata5">
    <rdf:RDF>
      <cc:Work
         rdf:about="">
        <dc:format>image/svg+xml</dc:format>
        <dc:type
           rdf:resource="http://purl.org/dc/dcmitype/StillImage" />
        <dc:title />
      </cc:Work>
    </rdf:RDF>
  </metadata>
  <g
     inkscape:label="Layer 1"
     inkscape:groupmode="layer"
     id="layer1"
     transform="translate(2757.7583,-962.30566)">
    <g
       id="g18"
       inkscape:label="244542-P3VLK7-594"
       transform="matrix(3.84,0,0,-3.84,-593.92654,2695.8592)">
      <g
         id="g1748"
         transform="translate(-593.52583,-34.721284)"
         inkscape:transform-center-x="5031.6192"
         inkscape:transform-center-y="-7160.3811">
        <g
           id="g1388">
          <g
             id="g1204"
             transform="matrix(0.2835017,0,0,0.26455347,19.412823,367.73709)">
            <text
               transform="scale(1,-1)"
               style="font-style:normal;font-variant:normal;font-weight:bold;font-stretch:normal;font-size:22.4161px;font-family:Comfortaa;-inkscape-font-specification:'Comfortaa, Bold';font-variant-ligatures:normal;font-variant-caps:normal;font-variant-numeric:normal;font-variant-east-asian:normal;writing-mode:lr-tb;fill:#ffffff;fill-opacity:1;fill-rule:nonzero;stroke:none"
               id="text24"
               x="97.711327"
               y="-107.02797"><tspan
                 sodipodi:role="line"
                 id="tspan22"
                 x="97.711327"
                 y="-107.02797">PÁGINA NÃO ENCONTRADA</tspan></text>
            <text
               transform="scale(1.0425017,-0.95923104)"
               style="font-style:normal;font-variant:normal;font-weight:600;font-stretch:normal;font-size:247.646px;font-family:Comfortaa;-inkscape-font-specification:'Comfortaa, Semi-Bold';font-variant-ligatures:normal;font-variant-caps:normal;font-variant-numeric:normal;font-variant-east-asian:normal;writing-mode:lr-tb;fill:#ffffff;fill-opacity:1;fill-rule:nonzero;stroke:none;stroke-width:1.04249"
               id="text28"
               x="31.481363"
               y="-168.95128"><tspan
                 x="31.481363 312.80606"
                 y="-168.95128"
                 sodipodi:role="line"
                 id="tspan26"
                 style="stroke-width:1.04249">44</tspan></text>
            <g
               id="g30"
               transform="translate(2.8368666e-5)">
              <g
                 id="g32"
                 clip-path="url(#clipPath36)">
                <g
                   id="g38"
                   transform="translate(333.6406,250.5518)">
                  <path
                     d="m 0,0 c 0,-49.519 -35.043,-77.305 -85.237,-77.305 -50.196,0 -82.044,33.361 -82.044,82.878 0,49.521 31.848,98.389 82.044,98.389 C -35.043,103.962 0,49.521 0,0"
                     style="fill:#ffffff;fill-opacity:1;fill-rule:nonzero;stroke:none"
                     id="path40" />
                </g>
                <g
                   id="g42"
                   transform="translate(292.5449,182.1641)">
                  <path
                     d="M 0,0 -7.072,44.408 -81.443,41.257 -88.478,2 c 0,0 39.455,-24.979 88.478,-2"
                     style="fill:#f5efdb;fill-opacity:1;fill-rule:nonzero;stroke:none"
                     id="path44" />
                </g>
                <g
                   id="g46"
                   transform="translate(208.7383,211.873)">
                  <path
                     d="m 0,0 c 0,0 46.807,-4.264 78.396,4.263 l 2.786,-17.944 c 0,0 -41.178,-18.927 -84.087,-2.532 z"
                     style="fill:#b32d2f;fill-opacity:1;fill-rule:nonzero;stroke:none"
                     id="path48" />
                </g>
                <g
                   id="g50"
                   transform="translate(258.8887,161.4854)">
                  <path
                     d="m 0,0 c 0,0 -1.082,-6.298 0.303,-6.846 1.384,-0.549 2.691,5.326 2.691,5.326 0,0 -0.252,-6.088 1.326,-6.368 1.58,-0.279 2.256,6.107 2.256,6.107 0,0 0.315,-7.124 2.037,-6.7 1.723,0.423 2.403,6.722 2.403,6.722 0,0 0.377,-6.538 1.943,-6.543 1.568,-0.005 2.256,6.642 2.256,6.642 0,0 1.205,-6.302 2.375,-6.076 1.168,0.225 1.254,6.15 1.254,6.15 0,0 0.465,-6.363 2.549,-6.344 2.084,0.019 2.132,6.812 2.132,6.812 0,0 0.721,-6.497 2.614,-5.979 1.894,0.519 1.013,6.646 1.013,6.646 0,0 1.182,-5.069 2.92,-4.991 1.739,0.076 0.151,6.778 0.151,6.778 C 30.223,1.336 11.932,-1.32 0,0"
                     style="fill:#832c34;fill-opacity:1;fill-rule:nonzero;stroke:none"
                     id="path52" />
                </g>
                <g
                   id="g54"
                   transform="translate(208.5937,209.4248)">
                  <path
                     d="M 0,0 C 0,0 38.659,-6.522 76.039,2.719 76.039,2.719 36.175,-8.04 0,0"
                     style="fill:#832c34;fill-opacity:1;fill-rule:nonzero;stroke:none"
                     id="path56" />
                </g>
                <g
                   id="g58"
                   transform="translate(207.8872,203.7598)">
                  <path
                     d="M 0,0 C 0,0 39.365,-6.978 76.746,2.264 76.746,2.264 41.174,-8.451 0,0"
                     style="fill:#832c34;fill-opacity:1;fill-rule:nonzero;stroke:none"
                     id="path60" />
                </g>
                <g
                   id="g62"
                   transform="translate(206.3955,197.1572)">
                  <path
                     d="M 0,0 C 0,0 43.813,-8.927 79.798,1.896 79.798,1.896 45.991,-9.859 0,0"
                     style="fill:#832c34;fill-opacity:1;fill-rule:nonzero;stroke:none"
                     id="path64" />
                </g>
                <g
                   id="g66"
                   transform="translate(214.2622,210.7598)">
                  <path
                     d="m 0,0 -2.75,-15.451 c 0,0 0,8.576 2.75,15.451"
                     style="fill:#832c34;fill-opacity:1;fill-rule:nonzero;stroke:none"
                     id="path68" />
                </g>
                <g
                   id="g70"
                   transform="translate(222.728,210.6943)">
                  <path
                     d="m 0,0 -2.75,-18.62 c 0,0 0,10.335 2.75,18.62"
                     style="fill:#832c34;fill-opacity:1;fill-rule:nonzero;stroke:none"
                     id="path72" />
                </g>
                <g
                   id="g74"
                   transform="translate(231.9146,209.7559)">
                  <path
                     d="m 0,0 0.166,-18.821 c 0,0 -1.6,10.21 -0.166,18.821"
                     style="fill:#832c34;fill-opacity:1;fill-rule:nonzero;stroke:none"
                     id="path76" />
                </g>
                <g
                   id="g78"
                   transform="translate(243.5537,209.7559)">
                  <path
                     d="m 0,0 0.166,-18.821 c 0,0 -1.6,10.21 -0.166,18.821"
                     style="fill:#832c34;fill-opacity:1;fill-rule:nonzero;stroke:none"
                     id="path80" />
                </g>
                <g
                   id="g82"
                   transform="translate(254.6348,209.7148)">
                  <path
                     d="M 0,0 1.758,-18.739 C 1.758,-18.739 -0.701,-8.701 0,0"
                     style="fill:#832c34;fill-opacity:1;fill-rule:nonzero;stroke:none"
                     id="path84" />
                </g>
                <g
                   id="g86"
                   transform="translate(263.6973,211.9258)">
                  <path
                     d="M 0,0 1.758,-18.739 C 1.758,-18.739 -0.701,-8.701 0,0"
                     style="fill:#832c34;fill-opacity:1;fill-rule:nonzero;stroke:none"
                     id="path88" />
                </g>
                <g
                   id="g90"
                   transform="translate(264.5137,212.5)">
                  <path
                     d="m 0,0 -5.625,-51.015 c 0,0 19.051,-2.875 30.223,1.336 L 20.352,3.052 C 20.352,3.052 3.398,1.502 0,0"
                     style="fill:#b32d2f;fill-opacity:1;fill-rule:nonzero;stroke:none"
                     id="path92" />
                </g>
                <g
                   id="g94"
                   transform="translate(278.9961,214.0234)">
                  <path
                     d="m 0,0 1.83,-53.125 c 0,0 -3.631,30.844 -1.83,53.125"
                     style="fill:#832c34;fill-opacity:1;fill-rule:nonzero;stroke:none"
                     id="path96" />
                </g>
                <g
                   id="g98"
                   transform="translate(269.7324,212.8311)">
                  <path
                     d="m 0,0 -5.453,-50.865 c 0,0 0.91,33.511 5.453,50.865"
                     style="fill:#832c34;fill-opacity:1;fill-rule:nonzero;stroke:none"
                     id="path100" />
                </g>
                <g
                   id="g102"
                   transform="translate(273.8223,213.7949)">
                  <path
                     d="m 0,0 -1.246,-51.462 c 0,0 -2.043,28.524 1.246,51.462"
                     style="fill:#832c34;fill-opacity:1;fill-rule:nonzero;stroke:none"
                     id="path104" />
                </g>
                <g
                   id="g106"
                   transform="translate(262.7695,195.2295)">
                  <path
                     d="M 0,0 23.666,1.861 C 23.666,1.861 13.973,3.352 0,0"
                     style="fill:#832c34;fill-opacity:1;fill-rule:nonzero;stroke:none"
                     id="path108" />
                </g>
                <g
                   id="g110"
                   transform="translate(262.8457,206.458)">
                  <path
                     d="M 0,0 23.666,1.86 C 23.666,1.86 13.973,3.352 0,0"
                     style="fill:#832c34;fill-opacity:1;fill-rule:nonzero;stroke:none"
                     id="path112" />
                </g>
                <g
                   id="g114"
                   transform="translate(261.3965,184.2412)">
                  <path
                     d="M 0,0 25.578,1.518 C 25.578,1.518 15.211,3.073 0,0"
                     style="fill:#832c34;fill-opacity:1;fill-rule:nonzero;stroke:none"
                     id="path116" />
                </g>
                <g
                   id="g118"
                   transform="translate(260.2012,173.0332)">
                  <path
                     d="M 0,0 28.35,2.452 C 28.35,2.452 20.67,3.648 0,0"
                     style="fill:#832c34;fill-opacity:1;fill-rule:nonzero;stroke:none"
                     id="path120" />
                </g>
                <g
                   id="g122"
                   transform="translate(259.6211,165.5635)">
                  <path
                     d="M 0,0 28.348,2.452 C 28.348,2.452 20.668,3.649 0,0"
                     style="fill:#832c34;fill-opacity:1;fill-rule:nonzero;stroke:none"
                     id="path124" />
                </g>
                <g
                   id="g126"
                   transform="translate(193.8979,342.5396)">
                  <path
                     d="m 0,0 c 0,0 79.204,11.975 91.016,6.302 11.811,-5.672 42.381,-105.882 23.623,-117.857 -18.76,-11.976 -116.193,-24.78 -124.53,-0.2 C -18.229,-87.175 -8.764,-1.261 0,0"
                     style="fill:#f5efdb;fill-opacity:1;fill-rule:nonzero;stroke:none"
                     id="path128" />
                </g>
                <g
                   id="g130"
                   transform="translate(195.0903,358.5845)">
                  <path
                     d="m 0,0 3.406,-23.832 -6.302,-3.558 -18.908,23.32 c 0,0 13.98,11.894 21.804,4.07"
                     style="fill:#3c2a34;fill-opacity:1;fill-rule:nonzero;stroke:none"
                     id="path132" />
                </g>
                <g
                   id="g134"
                   transform="translate(283.1074,367.9683)">
                  <path
                     d="m 0,0 -2.281,-20.682 9.093,-3.799 13.606,15.814 C 20.418,-8.667 15.756,4.412 0,0"
                     style="fill:#3c2a34;fill-opacity:1;fill-rule:nonzero;stroke:none"
                     id="path136" />
                </g>
                <g
                   id="g138"
                   transform="translate(234.585,347.7749)">
                  <path
                     d="m 0,0 c 0,0 15.501,-67.45 -53.802,-65.841 0,0 -1.411,55.918 10.781,59.975 C -27.523,-0.708 0,0 0,0"
                     style="fill:#3c2a34;fill-opacity:1;fill-rule:nonzero;stroke:none"
                     id="path140" />
                </g>
                <g
                   id="g142"
                   transform="translate(244.8784,348.8125)">
                  <path
                     d="m 0,0 c 0,0 -5.121,-69.817 62.022,-51.538 0,0 -12.772,56.568 -19.772,56.293 C 30.958,4.311 0,0 0,0"
                     style="fill:#3c2a34;fill-opacity:1;fill-rule:nonzero;stroke:none"
                     id="path144" />
                </g>
                <g
                   id="g146"
                   transform="translate(219.3491,307.8008)">
                  <path
                     d="m 0,0 c 0,-5.499 -4.457,-9.956 -9.956,-9.956 -5.498,0 -9.955,4.457 -9.955,9.956 0,5.498 4.457,9.955 9.955,9.955 C -4.457,9.955 0,5.498 0,0"
                     style="fill:#98d5cc;fill-opacity:1;fill-rule:nonzero;stroke:none"
                     id="path148" />
                </g>
                <g
                   id="g150"
                   transform="translate(219.8354,307.7925)">
                  <path
                     d="m 0,0 c 0,-4.354 -3.53,-7.884 -7.884,-7.884 -4.355,0 -7.885,3.53 -7.885,7.884 0,4.354 3.53,7.885 7.885,7.885 C -3.53,7.885 0,4.354 0,0"
                     style="fill:#3c2a34;fill-opacity:1;fill-rule:nonzero;stroke:none"
                     id="path152" />
                </g>
                <g
                   id="g154"
                   transform="translate(287.9297,316.5527)">
                  <path
                     d="m 0,0 c 0,-5.498 -4.457,-9.956 -9.957,-9.956 -5.498,0 -9.953,4.458 -9.953,9.956 0,5.498 4.455,9.956 9.953,9.956 C -4.457,9.956 0,5.498 0,0"
                     style="fill:#98d5cc;fill-opacity:1;fill-rule:nonzero;stroke:none"
                     id="path156" />
                </g>
                <g
                   id="g158"
                   transform="translate(288.416,316.5449)">
                  <path
                     d="m 0,0 c 0,-4.354 -3.531,-7.885 -7.885,-7.885 -4.355,0 -7.885,3.531 -7.885,7.885 0,4.354 3.53,7.884 7.885,7.884 C -3.531,7.884 0,4.354 0,0"
                     style="fill:#3c2a34;fill-opacity:1;fill-rule:nonzero;stroke:none"
                     id="path160" />
                </g>
                <g
                   id="g162"
                   transform="translate(246.7954,287.7773)">
                  <path
                     d="m 0,0 c 0,0 14.867,-63.148 -27.576,-69.195 -42.444,-6.048 -40.196,57.44 12.574,77.914 0,0 9.318,-12.989 15.002,-8.719"
                     style="fill:#d0c4b3;fill-opacity:1;fill-rule:nonzero;stroke:none"
                     id="path164" />
                </g>
                <g
                   id="g166"
                   transform="translate(245.3794,290.2544)">
                  <path
                     d="M 0,0 C 0,0 -13.522,-63.45 29.041,-68.594 71.601,-73.739 68.007,-10.313 14.812,9.036 14.812,9.036 5.773,-4.148 0,0"
                     style="fill:#d0c4b3;fill-opacity:1;fill-rule:nonzero;stroke:none"
                     id="path168" />
                </g>
                <g
                   id="g170"
                   transform="translate(207.0615,329.9434)">
                  <path
                     d="m 0,0 c 0,0 -7.499,11.055 -10.061,-3.435 0,0 3.293,8.191 10.061,3.435"
                     style="fill:#fffdf2;fill-opacity:1;fill-rule:nonzero;stroke:none"
                     id="path172" />
                </g>
                <g
                   id="g174"
                   transform="translate(283.1074,338.479)">
                  <path
                     d="m 0,0 c 0,0 -5.359,12.236 -10.518,-1.545 0,0 4.729,7.454 10.518,1.545"
                     style="fill:#fffdf2;fill-opacity:1;fill-rule:nonzero;stroke:none"
                     id="path176" />
                </g>
                <g
                   id="g178"
                   transform="translate(190.6172,252.5508)">
                  <path
                     d="m 0,0 c 0,0 1.172,-36.888 25.224,-29.793 24.053,7.095 31.791,31.276 31.791,31.276 0,0 9.551,-28.661 28.387,-30.911 14.342,-1.713 27.506,21.219 27.506,21.219 0,0 -1.029,-24.791 -22.994,-23.963 -26.096,0.985 -33.461,23.661 -33.461,23.661 0,0 -6.817,-30.642 -35.119,-26.419 C -6.968,-30.708 0,0 0,0"
                     style="fill:#aea598;fill-opacity:1;fill-rule:nonzero;stroke:none"
                     id="path180" />
                </g>
                <g
                   id="g182"
                   transform="translate(247,283.6499)">
                  <path
                     d="M 0,0 0.747,-41.083 H -1.421 L -2.231,0 Z"
                     style="fill:#3c2a34;fill-opacity:1;fill-rule:nonzero;stroke:none"
                     id="path184" />
                </g>
                <g
                   id="g186"
                   transform="translate(261.8613,224.9004)">
                  <path
                     d="m 0,0 c 0,0 3.273,-27.102 -12.544,-27.731 -15.817,-0.629 -15.945,24.195 -15.945,24.195 0,0 11.536,11.993 13.32,21.202 0,0 6.98,-12.96 15.169,-17.666"
                     style="fill:#e76650;fill-opacity:1;fill-rule:nonzero;stroke:none"
                     id="path188" />
                </g>
                <g
                   id="g190"
                   transform="translate(247.6323,245.1543)">
                  <path
                     d="m 0,0 c 0,0 4.829,-19.057 24.958,-23.232 0,0 -23.666,-1.027 -26.333,19.324 0,0 -3.935,-18.806 -17.142,-21.404 0,0 15.935,11.019 16.327,29.623 z"
                     style="fill:#3c2a34;fill-opacity:1;fill-rule:nonzero;stroke:none"
                     id="path192" />
                </g>
                <g
                   id="g194"
                   transform="translate(226.5889,294.2632)">
                  <path
                     d="M 0,0 C 0,0 10.679,-18.653 20.485,-14.703 30.292,-10.752 36.577,3.582 36.577,3.582 36.577,3.582 19.59,21.318 0,0"
                     style="fill:#3c2a34;fill-opacity:1;fill-rule:nonzero;stroke:none"
                     id="path196" />
                </g>
                <g
                   id="g198"
                   transform="translate(238.3804,293.3975)">
                  <path
                     d="M 0,0 C 0,0 4.611,3.336 6.288,-9.382 6.288,-9.382 2.978,-1.97 0,0"
                     style="fill:#616364;fill-opacity:1;fill-rule:nonzero;stroke:none"
                     id="path200" />
                </g>
                <g
                   id="g202"
                   transform="translate(251.375,294.6284)">
                  <path
                     d="m 0,0 c 0,0 -5.491,-2.747 -3.729,-9.976 0,0 1.104,6.613 3.729,9.976"
                     style="fill:#616364;fill-opacity:1;fill-rule:nonzero;stroke:none"
                     id="path204" />
                </g>
                <g
                   id="g206"
                   transform="translate(191.2412,291.2588)">
                  <path
                     d="M 0,0 C 0,0 18.419,-4.257 25.875,8.031 25.875,8.031 20.174,-7.894 0,0"
                     style="fill:#616364;fill-opacity:1;fill-rule:nonzero;stroke:none"
                     id="path208" />
                </g>
                <g
                   id="g210"
                   transform="translate(295.375,300.6289)">
                  <path
                     d="m 0,0 c 0,0 -18.42,-4.257 -25.875,8.031 0,0 5.701,-15.925 25.875,-8.031"
                     style="fill:#616364;fill-opacity:1;fill-rule:nonzero;stroke:none"
                     id="path212" />
                </g>
                <g
                   id="g214"
                   transform="translate(262.1035,221.3643)">
                  <path
                     d="m 0,0 c 0,0 -18.647,4.543 -27.519,-9.36 0,0 2.406,-15.172 14.477,-15.228 C 2.229,-24.659 0,0 0,0"
                     style="fill:#e9a295;fill-opacity:1;fill-rule:nonzero;stroke:none"
                     id="path216" />
                </g>
                <g
                   id="g218"
                   transform="translate(246.6919,230.4443)">
                  <path
                     d="m 0,0 c 0,0 0.829,-21.609 1.728,-27.443 0,0 2.27,13.922 -1.728,27.443"
                     style="fill:#e76650;fill-opacity:1;fill-rule:nonzero;stroke:none"
                     id="path220" />
                </g>
                <g
                   id="g222"
                   transform="translate(214.2471,315.3364)">
                  <path
                     d="m 0,0 -2.296,-5.43 5.165,3.838 c 0,0 -1.263,1.284 -2.869,1.592"
                     style="fill:#fffdf2;fill-opacity:1;fill-rule:nonzero;stroke:none"
                     id="path224" />
                </g>
                <g
                   id="g226"
                   transform="translate(282.8203,324.4292)">
                  <path
                     d="m 0,0 -2.295,-5.43 5.164,3.838 c 0,0 -1.262,1.284 -2.869,1.592"
                     style="fill:#fffdf2;fill-opacity:1;fill-rule:nonzero;stroke:none"
                     id="path228" />
                </g>
                <g
                   id="g230"
                   transform="translate(182.4707,352.4683)">
                  <path
                     d="m 0,0 c 0,0 6.109,4.111 9.667,3 l 1.666,-13.167 -3.945,-1.358 z"
                     style="fill:#efcac4;fill-opacity:1;fill-rule:nonzero;stroke:none"
                     id="path232" />
                </g>
                <g
                   id="g234"
                   transform="translate(192.8887,343.1558)">
                  <path
                     d="M 0,0 C 0,0 -0.07,8.191 -6.496,8.262 -6.496,8.262 -1.483,6.355 0,0"
                     style="fill:#ffffff;fill-opacity:1;fill-rule:nonzero;stroke:none"
                     id="path236" />
                </g>
                <g
                   id="g238"
                   transform="translate(297.332,361.7974)">
                  <path
                     d="m 0,0 c 0,0 -6.109,4.111 -9.666,3 l -1.666,-13.167 3.945,-1.358 z"
                     style="fill:#efcac4;fill-opacity:1;fill-rule:nonzero;stroke:none"
                     id="path240" />
                </g>
                <g
                   id="g242"
                   transform="translate(286.9141,352.4849)">
                  <path
                     d="M 0,0 C 0,0 0.07,8.191 6.496,8.262 6.496,8.262 1.484,6.355 0,0"
                     style="fill:#ffffff;fill-opacity:1;fill-rule:nonzero;stroke:none"
                     id="path244" />
                </g>
                <g
                   id="g246"
                   transform="translate(331.499,447.6616)">
                  <path
                     d="m 0,0 c -21.756,0 -39.393,-17.637 -39.393,-39.392 0,-17.044 10.827,-31.557 25.976,-37.045 l -3.6,-17.551 14.826,15.268 c 0.725,-0.04 1.456,-0.064 2.191,-0.064 21.756,0 39.393,17.637 39.393,39.392 C 39.393,-17.637 21.756,0 0,0"
                     style="fill:#ffffff;fill-opacity:1;fill-rule:nonzero;stroke:none"
                     id="path248" />
                </g>
                <g
                   id="g250"
                   transform="translate(323.6641,401.3398)">
                  <path
                     d="m 0,0 h 15.67 c 2.059,-4.372 6.491,-7.406 11.643,-7.406 5.153,0 9.585,3.034 11.643,7.406 H 26.437 v 10.801 0.137 h 12.519 c -2.058,4.373 -6.49,7.406 -11.643,7.406 -5.207,0 -9.68,-3.097 -11.709,-7.543 H 0.065 c -2.028,4.446 -6.502,7.543 -11.709,7.543 -5.152,0 -9.585,-3.034 -11.642,-7.406 h 12.518 V 0 h -12.518 c 2.057,-4.373 6.49,-7.406 11.642,-7.406 5.154,0 9.586,3.033 11.644,7.406"
                     style="fill:#f5efdb;fill-opacity:1;fill-rule:nonzero;stroke:none"
                     id="path252" />
                </g>
                <g
                   id="g254"
                   transform="translate(340.8066,403.2524)">
                  <path
                     d="m 0,0 c -13.052,0 -24.137,6.86 -28.174,16.409 -0.204,0.009 -0.406,0.022 -0.612,0.022 -5.152,0 -9.585,-3.034 -11.643,-7.406 H -27.91 V -1.913 h -12.519 c 2.058,-4.373 6.491,-7.406 11.643,-7.406 5.153,0 9.586,3.033 11.643,7.406 h 15.67 c 2.059,-4.372 6.492,-7.406 11.644,-7.406 5.152,0 9.585,3.034 11.642,7.406 H 9.295 V 1.215 C 6.369,0.43 3.247,0 0,0"
                     style="fill:#d0c4b3;fill-opacity:1;fill-rule:nonzero;stroke:none"
                     id="path256" />
                </g>
              </g>
            </g>
            <g
               id="g258"
               transform="translate(474.95436,200.1714)">
              <g
                 id="g260"
                 clip-path="url(#clipPath264)">
                <g
                   id="g1340"
                   transform="translate(6.9439652,6.6971842)">
                  <g
                     id="g350"
                     transform="translate(245.2725,18.834)">
                    <path
                       d="M 0,0 C -0.001,0.003 -0.001,0.006 -0.001,0.011 -0.001,0.006 -0.001,0.003 0,0"
                       style="fill:#3c2a34;fill-opacity:1;fill-rule:nonzero;stroke:none"
                       id="path352" />
                  </g>
                  <g
                     id="g354"
                     transform="translate(245.354,18.3154)">
                    <path
                       d="M 0,0 H 0.001 C -0.029,0.147 -0.054,0.294 -0.073,0.438 -0.054,0.293 -0.029,0.146 0,0"
                       style="fill:#3c2a34;fill-opacity:1;fill-rule:nonzero;stroke:none"
                       id="path356" />
                  </g>
                  <g
                     id="g358"
                     transform="translate(245.8906,16.8115)">
                    <path
                       d="M 0,0 C -0.004,0.006 -0.007,0.014 -0.011,0.021 -0.007,0.014 -0.004,0.006 0,0"
                       style="fill:#3c2a34;fill-opacity:1;fill-rule:nonzero;stroke:none"
                       id="path360" />
                  </g>
                  <g
                     id="g362"
                     transform="translate(245.8394,16.9121)">
                    <path
                       d="M 0,0 C -0.014,0.027 -0.028,0.056 -0.041,0.083 -0.028,0.054 -0.014,0.027 0,0"
                       style="fill:#3c2a34;fill-opacity:1;fill-rule:nonzero;stroke:none"
                       id="path364" />
                  </g>
                  <g
                     id="g366"
                     transform="translate(245.5049,17.7363)">
                    <path
                       d="M 0,0 C 0.079,-0.25 0.174,-0.492 0.286,-0.724 0.173,-0.488 0.079,-0.245 0.002,0 Z"
                       style="fill:#3c2a34;fill-opacity:1;fill-rule:nonzero;stroke:none"
                       id="path368" />
                  </g>
                  <g
                     id="g370"
                     transform="translate(251.5449,25.0439)">
                    <path
                       d="m 0,0 c 0.313,0 0.545,-0.025 0.81,-0.069 l 0.075,0.476 c 0,0 -0.732,0.225 -1.694,0.147 l -0.076,0.259 c 0.299,0.063 0.524,0.329 0.524,0.646 0,0.364 -0.296,0.659 -0.66,0.659 -0.366,0 -0.661,-0.295 -0.661,-0.659 0,-0.317 0.224,-0.583 0.523,-0.646 l 0.084,-0.29 C -2.097,0.384 -2.91,-0.016 -2.91,-0.016 l 0.144,-0.44 c 0.618,0.206 1.154,0.331 1.64,0.384 C -0.649,-0.022 -0.291,0 0,0"
                       style="fill:#3c2a34;fill-opacity:1;fill-rule:nonzero;stroke:none"
                       id="path372" />
                  </g>
                  <g
                     id="g374"
                     transform="translate(245.8784,22.6328)">
                    <path
                       d="m 0,0 0.003,0.005 c 0.024,0.03 0.047,0.059 0.071,0.089 l -0.196,0.14 -0.304,0.223 c -0.017,-0.023 -0.497,-0.465 -0.876,-1.279 -0.016,0.025 -0.035,0.051 -0.056,0.074 -0.114,0.124 -0.272,0.187 -0.475,0.184 h -0.008 c -0.125,0 -0.211,0.042 -0.267,0.091 0.056,0.072 0.089,0.161 0.089,0.259 0,0.23 -0.187,0.418 -0.418,0.418 -0.23,0 -0.418,-0.188 -0.418,-0.418 0,-0.231 0.188,-0.418 0.418,-0.418 0.036,0 0.07,0.006 0.104,0.013 0.103,-0.114 0.266,-0.214 0.505,-0.209 0.123,0.001 0.213,-0.03 0.273,-0.097 0.07,-0.076 0.093,-0.185 0.1,-0.267 0,-0.001 0,-0.003 -0.002,-0.003 -0.272,-0.743 -0.194,-1.669 -0.194,-1.669 l 0.661,-0.027 c 0.013,0.337 0.062,0.927 0.232,1.395 C -0.429,-0.591 -0.017,-0.024 0,0"
                       style="fill:#3c2a34;fill-opacity:1;fill-rule:nonzero;stroke:none"
                       id="path376" />
                  </g>
                  <g
                     id="g378"
                     transform="translate(257.2949,24.4912)">
                    <path
                       d="m 0,0 c -0.23,0 -0.418,-0.187 -0.418,-0.418 0,-0.036 0.006,-0.07 0.015,-0.103 -0.116,-0.104 -0.214,-0.267 -0.211,-0.506 0.002,-0.123 -0.03,-0.213 -0.097,-0.273 -0.053,-0.048 -0.119,-0.072 -0.185,-0.088 -0.492,0.689 -1.097,1.11 -1.097,1.11 l -0.474,-0.509 c 0.359,-0.326 0.725,-0.734 1.08,-1.244 0.246,-0.352 0.499,-0.806 0.71,-1.259 l 0.64,0.304 c 0,0 -0.292,0.722 -0.703,1.37 0.071,0.024 0.143,0.063 0.207,0.12 0.125,0.112 0.186,0.272 0.182,0.474 -0.001,0.129 0.042,0.217 0.093,0.275 0.071,-0.054 0.161,-0.089 0.258,-0.089 0.232,0 0.419,0.188 0.419,0.418 C 0.419,-0.187 0.232,0 0,0"
                       style="fill:#3c2a34;fill-opacity:1;fill-rule:nonzero;stroke:none"
                       id="path380" />
                  </g>
                  <g
                     id="g382"
                     transform="translate(255.6338,18.7402)">
                    <path
                       d="m 0,0 c -0.88,-0.429 -2.33,-0.996 -4.238,-1.262 -0.749,-0.104 -1.475,-0.142 -2.142,-0.142 -0.87,0 -1.638,0.064 -2.227,0.138 -0.672,0.085 -1.199,0.19 -1.52,0.262 0.077,-0.245 0.171,-0.488 0.284,-0.724 10e-4,-0.006 0.005,-0.012 0.008,-0.017 0.013,-0.027 0.026,-0.056 0.041,-0.083 0.013,-0.028 0.026,-0.055 0.04,-0.08 0.004,-0.007 0.007,-0.015 0.011,-0.021 0.189,-0.356 0.416,-0.684 0.675,-0.967 0.9,-0.985 1.817,-1.141 1.825,-1.142 l 0.015,-0.002 0.013,-0.005 c 0.008,-0.003 0.821,-0.266 2.058,-0.266 1.215,0 2.408,0.247 3.546,0.73 0.841,0.431 1.638,1.085 2.033,1.669 0.306,0.451 0.525,0.933 0.656,1.433 0.069,0.266 0.125,0.693 0.093,1.141 C 0.923,0.496 0.53,0.258 0,0"
                       style="fill:#3c2a34;fill-opacity:1;fill-rule:nonzero;stroke:none"
                       id="path384" />
                  </g>
                  <g
                     id="g386"
                     transform="translate(248.6787,22.8838)">
                    <path
                       d="M 0,0 C 0.973,0 1.76,-0.788 1.76,-1.761 1.76,-2.733 0.973,-3.52 0,-3.52 c -0.972,0 -1.76,0.787 -1.76,1.759 C -1.76,-0.788 -0.972,0 0,0 m 5.15,-0.043 c 0.601,0 1.09,-0.488 1.09,-1.09 0,-0.6 -0.489,-1.09 -1.09,-1.09 -0.6,0 -1.088,0.49 -1.088,1.09 0,0.602 0.488,1.09 1.088,1.09 M -2.518,-0.46 C -2.543,-0.497 -2.926,-1.038 -3.227,-1.868 -3.454,-2.49 -3.443,-3.396 -3.443,-3.405 v -0.002 c 0,-0.213 0.011,-0.423 0.035,-0.632 0,-0.005 0,-0.008 0.002,-0.011 0.002,-0.027 0.006,-0.053 0.009,-0.08 0.019,-0.144 0.043,-0.291 0.074,-0.438 0.438,-0.112 3.049,-0.72 5.968,-0.314 1.829,0.254 3.218,0.795 4.061,1.204 0.701,0.34 1.151,0.648 1.325,0.774 C 7.858,-2.261 7.38,-1.254 6.942,-0.625 5.688,1.166 4.338,1.626 3.644,1.739 3.379,1.783 3.167,1.808 2.866,1.808 2.587,1.808 2.24,1.785 1.777,1.736 1.312,1.688 0.795,1.566 0.194,1.364 -0.647,1.082 -1.41,0.64 -2.009,0.084 L -2.03,0.065 C -2.119,-0.017 -2.304,-0.188 -2.518,-0.46"
                       style="fill:#3c2a34;fill-opacity:1;fill-rule:nonzero;stroke:none"
                       id="path388" />
                  </g>
                </g>
              </g>
            </g>
          </g>
        </g>
      </g>
    </g>
  </g>
</svg>
