<?xml version="1.0" encoding="UTF-8" standalone="no"?>
<svg xmlns:dc="http://purl.org/dc/elements/1.1/"
  xmlns:cc="http://creativecommons.org/ns#"
  xmlns:rdf="http://www.w3.org/1999/02/22-rdf-syntax-ns#"
  xmlns:svg="http://www.w3.org/2000/svg"
  xmlns="http://www.w3.org/2000/svg"
  xmlns:sodipodi="http://sodipodi.sourceforge.net/DTD/sodipodi-0.dtd"
  xmlns:inkscape="http://www.inkscape.org/namespaces/inkscape" width="15.992762mm" height="12.934963mm" viewBox="0 0 15.992762 12.934964" version="1.1" id="svg8" sodipodi:docname="freepik-icon.svg" inkscape:version="1.0.2 (e86c870879, 2021-01-15, custom)">
  <defs id="defs2">
    <clipPath clipPathUnits="userSpaceOnUse" id="clipPath36">
      <path d="M 0,500 H 500 V 0 H 0 Z" id="path34" />
    </clipPath>
    <clipPath clipPathUnits="userSpaceOnUse" id="clipPath264">
      <path d="M 0,500 H 500 V 0 H 0 Z" id="path262" />
    </clipPath>
  </defs>
  <sodipodi:namedview id="base" pagecolor="#ffffff" bordercolor="#666666" borderopacity="1.0" inkscape:pageopacity="1" inkscape:pageshadow="2" inkscape:zoom="0.35" inkscape:cx="-159.41714" inkscape:cy="-63.779565" inkscape:document-units="mm" inkscape:current-layer="g1204" inkscape:document-rotation="0" showgrid="false" inkscape:window-width="2560" inkscape:window-height="1017" inkscape:window-x="-8" inkscape:window-y="-8" inkscape:window-maximized="1" inkscape:pagecheckerboard="true" />
  <metadata id="metadata5">
    <rdf:RDF>
      <cc:Work rdf:about="">
        <dc:format>image/svg+xml</dc:format>
        <dc:type rdf:resource="http://purl.org/dc/dcmitype/StillImage" />
        <dc:title />
      </cc:Work>
    </rdf:RDF>
  </metadata>
  <g inkscape:label="Layer 1" inkscape:groupmode="layer" id="layer1" transform="translate(2481.8072,-1158.9197)">
    <g id="g18" inkscape:label="244542-P3VLK7-594" transform="matrix(3.84,0,0,-3.84,-593.92654,2695.8592)">
      <g id="g1748" transform="translate(-593.52583,-34.721284)" inkscape:transform-center-x="5031.6192" inkscape:transform-center-y="-7160.3811">
        <g id="g1388">
          <g id="g1204" transform="matrix(0.2835017,0,0,0.26455347,19.412823,367.73709)">
            <g id="g258" transform="translate(40.956523,220.26295)">
              <g id="g260" clip-path="url(#clipPath264)">
                <g id="g1340" transform="translate(6.9439652,6.6971842)">
                  <g id="g350" transform="translate(245.2725,18.834)">
                    <path fill="#464044" d="M 0,0 C -0.001,0.003 -0.001,0.006 -0.001,0.011 -0.001,0.006 -0.001,0.003 0,0" style="fill-opacity:1;fill-rule:nonzero;stroke:none" id="path352" />
                  </g>
                  <g id="g354" transform="translate(245.354,18.3154)">
                    <path fill="#464044" d="M 0,0 H 0.001 C -0.029,0.147 -0.054,0.294 -0.073,0.438 -0.054,0.293 -0.029,0.146 0,0" style="fill-opacity:1;fill-rule:nonzero;stroke:none" id="path356" />
                  </g>
                  <g id="g358" transform="translate(245.8906,16.8115)">
                    <path fill="#464044" d="M 0,0 C -0.004,0.006 -0.007,0.014 -0.011,0.021 -0.007,0.014 -0.004,0.006 0,0" style="fill-opacity:1;fill-rule:nonzero;stroke:none" id="path360" />
                  </g>
                  <g id="g362" transform="translate(245.8394,16.9121)">
                    <path fill="#464044" d="M 0,0 C -0.014,0.027 -0.028,0.056 -0.041,0.083 -0.028,0.054 -0.014,0.027 0,0" style="fill-opacity:1;fill-rule:nonzero;stroke:none" id="path364" />
                  </g>
                  <g id="g366" transform="translate(245.5049,17.7363)">
                    <path fill="#464044" d="M 0,0 C 0.079,-0.25 0.174,-0.492 0.286,-0.724 0.173,-0.488 0.079,-0.245 0.002,0 Z" style="fill-opacity:1;fill-rule:nonzero;stroke:none" id="path368" />
                  </g>
                  <g id="g370" transform="translate(251.5449,25.0439)">
                    <path fill="#464044" d="m 0,0 c 0.313,0 0.545,-0.025 0.81,-0.069 l 0.075,0.476 c 0,0 -0.732,0.225 -1.694,0.147 l -0.076,0.259 c 0.299,0.063 0.524,0.329 0.524,0.646 0,0.364 -0.296,0.659 -0.66,0.659 -0.366,0 -0.661,-0.295 -0.661,-0.659 0,-0.317 0.224,-0.583 0.523,-0.646 l 0.084,-0.29 C -2.097,0.384 -2.91,-0.016 -2.91,-0.016 l 0.144,-0.44 c 0.618,0.206 1.154,0.331 1.64,0.384 C -0.649,-0.022 -0.291,0 0,0" style="fill-opacity:1;fill-rule:nonzero;stroke:none" id="path372" />
                  </g>
                  <g id="g374" transform="translate(245.8784,22.6328)">
                    <path fill="#464044" d="m 0,0 0.003,0.005 c 0.024,0.03 0.047,0.059 0.071,0.089 l -0.196,0.14 -0.304,0.223 c -0.017,-0.023 -0.497,-0.465 -0.876,-1.279 -0.016,0.025 -0.035,0.051 -0.056,0.074 -0.114,0.124 -0.272,0.187 -0.475,0.184 h -0.008 c -0.125,0 -0.211,0.042 -0.267,0.091 0.056,0.072 0.089,0.161 0.089,0.259 0,0.23 -0.187,0.418 -0.418,0.418 -0.23,0 -0.418,-0.188 -0.418,-0.418 0,-0.231 0.188,-0.418 0.418,-0.418 0.036,0 0.07,0.006 0.104,0.013 0.103,-0.114 0.266,-0.214 0.505,-0.209 0.123,0.001 0.213,-0.03 0.273,-0.097 0.07,-0.076 0.093,-0.185 0.1,-0.267 0,-0.001 0,-0.003 -0.002,-0.003 -0.272,-0.743 -0.194,-1.669 -0.194,-1.669 l 0.661,-0.027 c 0.013,0.337 0.062,0.927 0.232,1.395 C -0.429,-0.591 -0.017,-0.024 0,0" style="fill-opacity:1;fill-rule:nonzero;stroke:none" id="path376" />
                  </g>
                  <g id="g378" transform="translate(257.2949,24.4912)">
                    <path fill="#464044" d="m 0,0 c -0.23,0 -0.418,-0.187 -0.418,-0.418 0,-0.036 0.006,-0.07 0.015,-0.103 -0.116,-0.104 -0.214,-0.267 -0.211,-0.506 0.002,-0.123 -0.03,-0.213 -0.097,-0.273 -0.053,-0.048 -0.119,-0.072 -0.185,-0.088 -0.492,0.689 -1.097,1.11 -1.097,1.11 l -0.474,-0.509 c 0.359,-0.326 0.725,-0.734 1.08,-1.244 0.246,-0.352 0.499,-0.806 0.71,-1.259 l 0.64,0.304 c 0,0 -0.292,0.722 -0.703,1.37 0.071,0.024 0.143,0.063 0.207,0.12 0.125,0.112 0.186,0.272 0.182,0.474 -0.001,0.129 0.042,0.217 0.093,0.275 0.071,-0.054 0.161,-0.089 0.258,-0.089 0.232,0 0.419,0.188 0.419,0.418 C 0.419,-0.187 0.232,0 0,0" style="fill-opacity:1;fill-rule:nonzero;stroke:none" id="path380" />
                  </g>
                  <g id="g382" transform="translate(255.6338,18.7402)">
                    <path fill="#464044" d="m 0,0 c -0.88,-0.429 -2.33,-0.996 -4.238,-1.262 -0.749,-0.104 -1.475,-0.142 -2.142,-0.142 -0.87,0 -1.638,0.064 -2.227,0.138 -0.672,0.085 -1.199,0.19 -1.52,0.262 0.077,-0.245 0.171,-0.488 0.284,-0.724 10e-4,-0.006 0.005,-0.012 0.008,-0.017 0.013,-0.027 0.026,-0.056 0.041,-0.083 0.013,-0.028 0.026,-0.055 0.04,-0.08 0.004,-0.007 0.007,-0.015 0.011,-0.021 0.189,-0.356 0.416,-0.684 0.675,-0.967 0.9,-0.985 1.817,-1.141 1.825,-1.142 l 0.015,-0.002 0.013,-0.005 c 0.008,-0.003 0.821,-0.266 2.058,-0.266 1.215,0 2.408,0.247 3.546,0.73 0.841,0.431 1.638,1.085 2.033,1.669 0.306,0.451 0.525,0.933 0.656,1.433 0.069,0.266 0.125,0.693 0.093,1.141 C 0.923,0.496 0.53,0.258 0,0" style="fill-opacity:1;fill-rule:nonzero;stroke:none" id="path384" />
                  </g>
                  <g id="g386" transform="translate(248.6787,22.8838)">
                    <path fill="#464044" d="M 0,0 C 0.973,0 1.76,-0.788 1.76,-1.761 1.76,-2.733 0.973,-3.52 0,-3.52 c -0.972,0 -1.76,0.787 -1.76,1.759 C -1.76,-0.788 -0.972,0 0,0 m 5.15,-0.043 c 0.601,0 1.09,-0.488 1.09,-1.09 0,-0.6 -0.489,-1.09 -1.09,-1.09 -0.6,0 -1.088,0.49 -1.088,1.09 0,0.602 0.488,1.09 1.088,1.09 M -2.518,-0.46 C -2.543,-0.497 -2.926,-1.038 -3.227,-1.868 -3.454,-2.49 -3.443,-3.396 -3.443,-3.405 v -0.002 c 0,-0.213 0.011,-0.423 0.035,-0.632 0,-0.005 0,-0.008 0.002,-0.011 0.002,-0.027 0.006,-0.053 0.009,-0.08 0.019,-0.144 0.043,-0.291 0.074,-0.438 0.438,-0.112 3.049,-0.72 5.968,-0.314 1.829,0.254 3.218,0.795 4.061,1.204 0.701,0.34 1.151,0.648 1.325,0.774 C 7.858,-2.261 7.38,-1.254 6.942,-0.625 5.688,1.166 4.338,1.626 3.644,1.739 3.379,1.783 3.167,1.808 2.866,1.808 2.587,1.808 2.24,1.785 1.777,1.736 1.312,1.688 0.795,1.566 0.194,1.364 -0.647,1.082 -1.41,0.64 -2.009,0.084 L -2.03,0.065 C -2.119,-0.017 -2.304,-0.188 -2.518,-0.46" style="fill-opacity:1;fill-rule:nonzero;stroke:none" id="path388" />
                  </g>
                </g>
              </g>
            </g>
          </g>
        </g>
      </g>
    </g>
  </g>
</svg>
