<?xml version="1.0" encoding="UTF-8" standalone="no"?>
<svg
   xmlns:dc="http://purl.org/dc/elements/1.1/"
   xmlns:cc="http://creativecommons.org/ns#"
   xmlns:rdf="http://www.w3.org/1999/02/22-rdf-syntax-ns#"
   xmlns:svg="http://www.w3.org/2000/svg"
   xmlns="http://www.w3.org/2000/svg"
   xmlns:sodipodi="http://sodipodi.sourceforge.net/DTD/sodipodi-0.dtd"
   xmlns:inkscape="http://www.inkscape.org/namespaces/inkscape"
   height="24"
   viewBox="0 0 24 24"
   width="24"
   fill="#000000"
   version="1.1"
   id="svg14"
   sodipodi:docname="pets.svg"
   inkscape:version="1.0.2 (e86c870879, 2021-01-15, custom)">
  <metadata
     id="metadata20">
    <rdf:RDF>
      <cc:Work
         rdf:about="">
        <dc:format>image/svg+xml</dc:format>
        <dc:type
           rdf:resource="http://purl.org/dc/dcmitype/StillImage" />
      </cc:Work>
    </rdf:RDF>
  </metadata>
  <defs
     id="defs18" />
  <sodipodi:namedview
     pagecolor="#ffffff"
     bordercolor="#666666"
     borderopacity="1"
     objecttolerance="10"
     gridtolerance="10"
     guidetolerance="10"
     inkscape:pageopacity="0"
     inkscape:pageshadow="2"
     inkscape:window-width="2560"
     inkscape:window-height="1017"
     id="namedview16"
     showgrid="false"
     inkscape:zoom="35.416667"
     inkscape:cx="12"
     inkscape:cy="8.6117647"
     inkscape:window-x="-8"
     inkscape:window-y="-8"
     inkscape:window-maximized="1"
     inkscape:current-layer="svg14" />
  <path
     d="M 0,0 H 24 V 24 H 0 Z"
     fill="none"
     id="path2" />
  <circle
     cx="4.5"
     cy="9.5"
     r="2.5"
     id="circle4" />
  <circle
     cx="9"
     cy="5.5"
     r="2.5"
     id="circle6" />
  <circle
     cx="15"
     cy="5.5"
     r="2.5"
     id="circle8" />
  <circle
     cx="19.5"
     cy="9.5"
     r="2.5"
     id="circle10" />
  <path
     d="M 17.34,14.86 C 16.47,13.84 15.74,12.97 14.86,11.95 14.4,11.41 13.81,10.87 13.11,10.63 13,10.59 12.89,10.56 12.78,10.54 12.53,10.5 12.26,10.5 12,10.5 c -0.26,0 -0.53,0 -0.79,0.05 -0.11,0.02 -0.22,0.05 -0.33,0.09 -0.7,0.24 -1.28,0.78 -1.75,1.32 -0.87,1.02 -1.6,1.89 -2.48,2.91 -1.31,1.31 -2.92,2.76 -2.62,4.79 0.29,1.02 1.02,2.03 2.33,2.32 0.73,0.15 3.06,-0.44 5.54,-0.44 h 0.18 c 2.48,0 4.81,0.58 5.54,0.44 1.31,-0.29 2.04,-1.31 2.33,-2.32 0.31,-2.04 -1.3,-3.49 -2.61,-4.8 z"
     id="path12" />
</svg>
