<?xml version="1.0" encoding="UTF-8" standalone="no"?>
<svg
   xmlns:dc="http://purl.org/dc/elements/1.1/"
   xmlns:cc="http://creativecommons.org/ns#"
   xmlns:rdf="http://www.w3.org/1999/02/22-rdf-syntax-ns#"
   xmlns:svg="http://www.w3.org/2000/svg"
   xmlns="http://www.w3.org/2000/svg"
   xmlns:xlink="http://www.w3.org/1999/xlink"
   xmlns:sodipodi="http://sodipodi.sourceforge.net/DTD/sodipodi-0.dtd"
   xmlns:inkscape="http://www.inkscape.org/namespaces/inkscape"
   width="482.36212pt"
   height="593.16406pt"
   viewBox="0 0 482.36212 593.16406"
   version="1.2"
   id="svg427"
   sodipodi:docname="dog-boss-path-top.svg"
   inkscape:version="1.0.2 (e86c870879, 2021-01-15, custom)">
  <metadata
     id="metadata431">
    <rdf:RDF>
      <cc:Work
         rdf:about="">
        <dc:format>image/svg+xml</dc:format>
        <dc:type
           rdf:resource="http://purl.org/dc/dcmitype/StillImage" />
      </cc:Work>
    </rdf:RDF>
  </metadata>
  <sodipodi:namedview
     pagecolor="#ffffff"
     bordercolor="#666666"
     borderopacity="1"
     objecttolerance="10"
     gridtolerance="10"
     guidetolerance="10"
     inkscape:pageopacity="0"
     inkscape:pageshadow="2"
     inkscape:window-width="2560"
     inkscape:window-height="1017"
     id="namedview429"
     showgrid="false"
     inkscape:zoom="0.66875"
     inkscape:cx="-316.85052"
     inkscape:cy="540"
     inkscape:window-x="-8"
     inkscape:window-y="-8"
     inkscape:window-maximized="1"
     inkscape:current-layer="svg427" />
  <defs
     id="defs238">
    <clipPath
       id="clip1">
      <path
         d="m 957,0 h 483 V 594 H 957 Z m 0,0"
         id="path2" />
    </clipPath>
    <clipPath
       id="clip2">
      <path
         d="m 1619.668,593.49219 -670.37894,12.89062 -15.3125,-796.35156 670.37504,-12.89062 z m 0,0"
         id="path5" />
    </clipPath>
    <clipPath
       id="clip3">
      <path
         d="m 933.67578,-190.30078 670.37892,-12.89453 15.3125,796.35547 -670.37501,12.89062 z m 0,0"
         id="path8" />
    </clipPath>
    <clipPath
       id="clip4">
      <path
         d="m 1235,92 h 55 v 53 h -55 z m 0,0"
         id="path11" />
    </clipPath>
    <clipPath
       id="clip5">
      <path
         d="m 1189.6328,80.976562 78.582,-40.710937 39.6758,76.582035 -78.582,40.71093 z m 0,0"
         id="path14" />
    </clipPath>
    <clipPath
       id="clip6">
      <path
         d="m 1189.6328,80.976562 78.582,-40.710937 39.6758,76.582035 -78.582,40.71093 z m 0,0"
         id="path17" />
    </clipPath>
    <clipPath
       id="clip7">
      <path
         d="m 1207,101 h 27 v 24 h -27 z m 0,0"
         id="path20" />
    </clipPath>
    <clipPath
       id="clip8">
      <path
         d="m 1189.6328,80.976562 78.582,-40.710937 39.6758,76.582035 -78.582,40.71093 z m 0,0"
         id="path23" />
    </clipPath>
    <clipPath
       id="clip9">
      <path
         d="m 1189.6328,80.976562 78.582,-40.710937 39.6758,76.582035 -78.582,40.71093 z m 0,0"
         id="path26" />
    </clipPath>
    <clipPath
       id="clip10">
      <path
         d="m 1213,69 h 29 v 32 h -29 z m 0,0"
         id="path29" />
    </clipPath>
    <clipPath
       id="clip11">
      <path
         d="m 1189.6328,80.976562 78.582,-40.710937 39.6758,76.582035 -78.582,40.71093 z m 0,0"
         id="path32" />
    </clipPath>
    <clipPath
       id="clip12">
      <path
         d="m 1189.6328,80.976562 78.582,-40.710937 39.6758,76.582035 -78.582,40.71093 z m 0,0"
         id="path35" />
    </clipPath>
    <clipPath
       id="clip13">
      <path
         d="m 1240,54 h 26 v 34 h -26 z m 0,0"
         id="path38" />
    </clipPath>
    <clipPath
       id="clip14">
      <path
         d="m 1189.6328,80.976562 78.582,-40.710937 39.6758,76.582035 -78.582,40.71093 z m 0,0"
         id="path41" />
    </clipPath>
    <clipPath
       id="clip15">
      <path
         d="m 1189.6328,80.976562 78.582,-40.710937 39.6758,76.582035 -78.582,40.71093 z m 0,0"
         id="path44" />
    </clipPath>
    <clipPath
       id="clip16">
      <path
         d="m 1267,67 h 22 v 30 h -22 z m 0,0"
         id="path47" />
    </clipPath>
    <clipPath
       id="clip17">
      <path
         d="m 1189.6328,80.976562 78.582,-40.710937 39.6758,76.582035 -78.582,40.71093 z m 0,0"
         id="path50" />
    </clipPath>
    <clipPath
       id="clip18">
      <path
         d="m 1189.6328,80.976562 78.582,-40.710937 39.6758,76.582035 -78.582,40.71093 z m 0,0"
         id="path53" />
    </clipPath>
    <clipPath
       id="clip19">
      <path
         d="m 1204,99 h 29 v 26 h -29 z m 0,0"
         id="path56" />
    </clipPath>
    <clipPath
       id="clip20">
      <path
         d="m 1189.6328,80.976562 78.582,-40.710937 39.6758,76.582035 -78.582,40.71093 z m 0,0"
         id="path59" />
    </clipPath>
    <clipPath
       id="clip21">
      <path
         d="m 1189.6328,80.976562 78.582,-40.710937 39.6758,76.582035 -78.582,40.71093 z m 0,0"
         id="path62" />
    </clipPath>
    <clipPath
       id="clip22">
      <path
         d="m 1209,67 h 32 v 34 h -32 z m 0,0"
         id="path65" />
    </clipPath>
    <clipPath
       id="clip23">
      <path
         d="m 1189.6328,80.976562 78.582,-40.710937 39.6758,76.582035 -78.582,40.71093 z m 0,0"
         id="path68" />
    </clipPath>
    <clipPath
       id="clip24">
      <path
         d="m 1189.6328,80.976562 78.582,-40.710937 39.6758,76.582035 -78.582,40.71093 z m 0,0"
         id="path71" />
    </clipPath>
    <clipPath
       id="clip25">
      <path
         d="m 1237,52 h 28 v 36 h -28 z m 0,0"
         id="path74" />
    </clipPath>
    <clipPath
       id="clip26">
      <path
         d="m 1189.6328,80.976562 78.582,-40.710937 39.6758,76.582035 -78.582,40.71093 z m 0,0"
         id="path77" />
    </clipPath>
    <clipPath
       id="clip27">
      <path
         d="m 1189.6328,80.976562 78.582,-40.710937 39.6758,76.582035 -78.582,40.71093 z m 0,0"
         id="path80" />
    </clipPath>
    <clipPath
       id="clip28">
      <path
         d="m 1264,66 h 24 v 31 h -24 z m 0,0"
         id="path83" />
    </clipPath>
    <clipPath
       id="clip29">
      <path
         d="m 1189.6328,80.976562 78.582,-40.710937 39.6758,76.582035 -78.582,40.71093 z m 0,0"
         id="path86" />
    </clipPath>
    <clipPath
       id="clip30">
      <path
         d="m 1189.6328,80.976562 78.582,-40.710937 39.6758,76.582035 -78.582,40.71093 z m 0,0"
         id="path89" />
    </clipPath>
    <clipPath
       id="clip31">
      <path
         d="m 1276,102 h 4 v 3 h -4 z m 0,0"
         id="path92" />
    </clipPath>
    <clipPath
       id="clip32">
      <path
         d="m 1189.6328,80.976562 78.582,-40.710937 39.6758,76.582035 -78.582,40.71093 z m 0,0"
         id="path95" />
    </clipPath>
    <clipPath
       id="clip33">
      <path
         d="m 1189.6328,80.976562 78.582,-40.710937 39.6758,76.582035 -78.582,40.71093 z m 0,0"
         id="path98" />
    </clipPath>
    <clipPath
       id="clip34">
      <path
         d="m 1233,91 h 56 v 54 h -56 z m 0,0"
         id="path101" />
    </clipPath>
    <clipPath
       id="clip35">
      <path
         d="m 1189.6328,80.976562 78.582,-40.710937 39.6758,76.582035 -78.582,40.71093 z m 0,0"
         id="path104" />
    </clipPath>
    <clipPath
       id="clip36">
      <path
         d="m 1189.6328,80.976562 78.582,-40.710937 39.6758,76.582035 -78.582,40.71093 z m 0,0"
         id="path107" />
    </clipPath>
    <filter
       id="alpha"
       filterUnits="objectBoundingBox"
       x="0"
       y="0"
       width="1"
       height="1">
      <feColorMatrix
         type="matrix"
         in="SourceGraphic"
         values="0 0 0 0 1 0 0 0 0 1 0 0 0 0 1 0 0 0 1 0"
         id="feColorMatrix110" />
    </filter>
    <mask
       id="mask0">
      <g
         filter="url(#alpha)"
         id="g115">
        <rect
           x="0"
           y="0"
           width="1440"
           height="810"
           style="fill:#000000;fill-opacity:0.498;stroke:none"
           id="rect113" />
      </g>
    </mask>
    <clipPath
       id="clip38">
      <path
         d="M 44,0 H 253 V 534 H 44 Z m 0,0"
         id="path118" />
    </clipPath>
    <clipPath
       id="clip39">
      <path
         d="M 199.41406,-230.3125 452.33203,532.08203 255.85937,597.26172 2.941406,-165.13281 Z m 0,0"
         id="path121" />
    </clipPath>
    <clipPath
       id="clip40">
      <path
         d="M 199.41406,-230.3125 452.33203,532.08203 255.85937,597.26172 2.941406,-165.13281 Z m 0,0"
         id="path124" />
    </clipPath>
    <clipPath
       id="clip37">
      <rect
         x="0"
         y="0"
         width="253"
         height="606"
         id="rect127" />
    </clipPath>
    <g
       id="surface5"
       clip-path="url(#clip37)">
      <g
         clip-path="url(#clip38)"
         clip-rule="nonzero"
         id="g136">
        <g
           clip-path="url(#clip39)"
           clip-rule="nonzero"
           id="g134">
          <g
             clip-path="url(#clip40)"
             clip-rule="nonzero"
             id="g132">
            <path
               style="fill:#f5f3f5;fill-opacity:1;fill-rule:nonzero;stroke:none"
               d="m 449.80469,529.85156 c -0.88672,-0.6914 -82.69922,-63.63672 -118.03516,-137.83984 -4.28906,-8.4961 -8.02734,-17.23047 -11.21094,-26.19922 -3.1875,-8.96875 -5.79687,-18.10547 -7.83203,-27.40234 -2.03125,-9.30079 -3.47265,-18.6875 -4.32031,-28.16797 -0.84766,-9.48047 -1.09375,-18.97657 -0.74219,-28.48438 -0.20312,-30.94922 -0.3125,-57.65625 -29.96484,-98.23437 C 259.46484,158.55859 230.97266,144.23047 201.13281,129.79687 154.19141,106.68359 100.98438,80.496094 67.550781,5.113281 34.121094,-70.265625 56.746094,-179.14844 56.910156,-180.29687 l -5.054687,-1.0625 c 0.292969,0.88671 -20.25,97.242182 4.644531,172.277339 1.746094,5.390625 3.789062,10.667969 6.125,15.832031 34.21875,77.09375 88.34766,103.74219 136.04297,127.15234 29.4414,14.5625 57.17969,28.26563 74.66406,51.94922 28.66797,39.25781 28.74219,65.20703 28.84766,95.20313 -0.35157,9.76562 -0.0899,19.51562 0.78906,29.24609 0.87891,9.73438 2.36719,19.375 4.46484,28.91797 2.09375,9.54687 4.78516,18.92187 8.0625,28.12891 3.28125,9.20703 7.12891,18.17187 11.54297,26.89062 36.05469,75.71484 118.78906,139.125 119.64063,139.71875 z m 0,0"
               id="path130" />
          </g>
        </g>
      </g>
    </g>
    <clipPath
       id="clip41">
      <path
         d="m 1102,68 h 53 v 53 h -53 z m 0,0"
         id="path139" />
    </clipPath>
    <clipPath
       id="clip42">
      <path
         d="m 1047.4688,81.570312 59,-65.96875 64.289,57.5 -59,65.964848 z m 0,0"
         id="path142" />
    </clipPath>
    <clipPath
       id="clip43">
      <path
         d="m 1047.4688,81.570312 59,-65.96875 64.289,57.5 -59,65.964848 z m 0,0"
         id="path145" />
    </clipPath>
    <clipPath
       id="clip44">
      <path
         d="m 1073,90 h 29 v 21 h -29 z m 0,0"
         id="path148" />
    </clipPath>
    <clipPath
       id="clip45">
      <path
         d="m 1047.4688,81.570312 59,-65.96875 64.289,57.5 -59,65.964848 z m 0,0"
         id="path151" />
    </clipPath>
    <clipPath
       id="clip46">
      <path
         d="m 1047.4688,81.570312 59,-65.96875 64.289,57.5 -59,65.964848 z m 0,0"
         id="path154" />
    </clipPath>
    <clipPath
       id="clip47">
      <path
         d="m 1067,58 h 33 v 29 h -33 z m 0,0"
         id="path157" />
    </clipPath>
    <clipPath
       id="clip48">
      <path
         d="m 1047.4688,81.570312 59,-65.96875 64.289,57.5 -59,65.964848 z m 0,0"
         id="path160" />
    </clipPath>
    <clipPath
       id="clip49">
      <path
         d="m 1047.4688,81.570312 59,-65.96875 64.289,57.5 -59,65.964848 z m 0,0"
         id="path163" />
    </clipPath>
    <clipPath
       id="clip50">
      <path
         d="m 1088,35 h 30 v 32 h -30 z m 0,0"
         id="path166" />
    </clipPath>
    <clipPath
       id="clip51">
      <path
         d="m 1047.4688,81.570312 59,-65.96875 64.289,57.5 -59,65.964848 z m 0,0"
         id="path169" />
    </clipPath>
    <clipPath
       id="clip52">
      <path
         d="m 1047.4688,81.570312 59,-65.96875 64.289,57.5 -59,65.964848 z m 0,0"
         id="path172" />
    </clipPath>
    <clipPath
       id="clip53">
      <path
         d="m 1120,37 h 23 v 29 h -23 z m 0,0"
         id="path175" />
    </clipPath>
    <clipPath
       id="clip54">
      <path
         d="m 1047.4688,81.570312 59,-65.96875 64.289,57.5 -59,65.964848 z m 0,0"
         id="path178" />
    </clipPath>
    <clipPath
       id="clip55">
      <path
         d="m 1047.4688,81.570312 59,-65.96875 64.289,57.5 -59,65.964848 z m 0,0"
         id="path181" />
    </clipPath>
    <clipPath
       id="clip56">
      <path
         d="m 1070,89 h 30 v 23 h -30 z m 0,0"
         id="path184" />
    </clipPath>
    <clipPath
       id="clip57">
      <path
         d="m 1047.4688,81.570312 59,-65.96875 64.289,57.5 -59,65.964848 z m 0,0"
         id="path187" />
    </clipPath>
    <clipPath
       id="clip58">
      <path
         d="m 1047.4688,81.570312 59,-65.96875 64.289,57.5 -59,65.964848 z m 0,0"
         id="path190" />
    </clipPath>
    <clipPath
       id="clip59">
      <path
         d="m 1064,57 h 34 v 31 h -34 z m 0,0"
         id="path193" />
    </clipPath>
    <clipPath
       id="clip60">
      <path
         d="m 1047.4688,81.570312 59,-65.96875 64.289,57.5 -59,65.964848 z m 0,0"
         id="path196" />
    </clipPath>
    <clipPath
       id="clip61">
      <path
         d="m 1047.4688,81.570312 59,-65.96875 64.289,57.5 -59,65.964848 z m 0,0"
         id="path199" />
    </clipPath>
    <clipPath
       id="clip62">
      <path
         d="m 1085,34 h 32 v 34 h -32 z m 0,0"
         id="path202" />
    </clipPath>
    <clipPath
       id="clip63">
      <path
         d="m 1047.4688,81.570312 59,-65.96875 64.289,57.5 -59,65.964848 z m 0,0"
         id="path205" />
    </clipPath>
    <clipPath
       id="clip64">
      <path
         d="m 1047.4688,81.570312 59,-65.96875 64.289,57.5 -59,65.964848 z m 0,0"
         id="path208" />
    </clipPath>
    <clipPath
       id="clip65">
      <path
         d="m 1117,36 h 24 v 31 h -24 z m 0,0"
         id="path211" />
    </clipPath>
    <clipPath
       id="clip66">
      <path
         d="m 1047.4688,81.570312 59,-65.96875 64.289,57.5 -59,65.964848 z m 0,0"
         id="path214" />
    </clipPath>
    <clipPath
       id="clip67">
      <path
         d="m 1047.4688,81.570312 59,-65.96875 64.289,57.5 -59,65.964848 z m 0,0"
         id="path217" />
    </clipPath>
    <clipPath
       id="clip68">
      <path
         d="m 1136,70 h 5 v 3 h -5 z m 0,0"
         id="path220" />
    </clipPath>
    <clipPath
       id="clip69">
      <path
         d="m 1047.4688,81.570312 59,-65.96875 64.289,57.5 -59,65.964848 z m 0,0"
         id="path223" />
    </clipPath>
    <clipPath
       id="clip70">
      <path
         d="m 1047.4688,81.570312 59,-65.96875 64.289,57.5 -59,65.964848 z m 0,0"
         id="path226" />
    </clipPath>
    <clipPath
       id="clip71">
      <path
         d="m 1099,67 h 55 v 56 h -55 z m 0,0"
         id="path229" />
    </clipPath>
    <clipPath
       id="clip72">
      <path
         d="m 1047.4688,81.570312 59,-65.96875 64.289,57.5 -59,65.964848 z m 0,0"
         id="path232" />
    </clipPath>
    <clipPath
       id="clip73">
      <path
         d="m 1047.4688,81.570312 59,-65.96875 64.289,57.5 -59,65.964848 z m 0,0"
         id="path235" />
    </clipPath>
  </defs>
  <g
     id="surface1"
     transform="translate(-957.63788)">
    <g
       clip-path="url(#clip1)"
       clip-rule="nonzero"
       id="g246">
      <g
         clip-path="url(#clip2)"
         clip-rule="nonzero"
         id="g244">
        <g
           clip-path="url(#clip3)"
           clip-rule="nonzero"
           id="g242">
          <path
             style="fill:#4fbfc5;fill-opacity:1;fill-rule:nonzero;stroke:none"
             d="m 1619.043,593.16406 c -71.8828,-26.80469 -199.6289,-102.04297 -198.3438,-298.29297 1.6133,-273.046871 -478.48045,-57.65234 -462.67967,-485.64062 11.5625,-0.22266 491.46487,-9.45313 645.71097,-12.41797 z m 0,0"
             id="path240" />
        </g>
      </g>
    </g>
    <g
       clip-path="url(#clip4)"
       clip-rule="nonzero"
       id="g254">
      <g
         clip-path="url(#clip5)"
         clip-rule="nonzero"
         id="g252">
        <g
           clip-path="url(#clip6)"
           clip-rule="nonzero"
           id="g250">
          <path
             style="fill:#ffffff;fill-opacity:1;fill-rule:nonzero;stroke:none"
             d="m 1280.8086,130.85156 c 6.9258,-4.24609 17,-15.88281 -3.3359,-28.99609 -19.2539,-12.414064 -28.4922,-9.164064 -28.4922,-9.164064 -2.0977,0.300782 -3.8086,1.96875 -3.8086,1.96875 0,0 -6.3477,4.261719 -8.9453,28.566404 -2.7266,25.49219 14.8047,21.77344 22.5664,18.82813 1.5312,-0.57813 5.7851,-3.21485 5.7851,-3.21485 0,0 3.8047,-3.32812 10.211,-5.28906 l 6.0195,-2.69922"
             id="path248" />
        </g>
      </g>
    </g>
    <g
       clip-path="url(#clip7)"
       clip-rule="nonzero"
       id="g262">
      <g
         clip-path="url(#clip8)"
         clip-rule="nonzero"
         id="g260">
        <g
           clip-path="url(#clip9)"
           clip-rule="nonzero"
           id="g258">
          <path
             style="fill:#ffffff;fill-opacity:1;fill-rule:nonzero;stroke:none"
             d="m 1221.2188,102.26563 c 0,0 17.4375,3.625 11.4335,16.53125 -6.0078,12.91015 -20.5937,2.13671 -23.6367,-6.10547 -3.0429,-8.24219 -0.289,-13.863285 12.2032,-10.42578"
             id="path256" />
        </g>
      </g>
    </g>
    <g
       clip-path="url(#clip10)"
       clip-rule="nonzero"
       id="g270">
      <g
         clip-path="url(#clip11)"
         clip-rule="nonzero"
         id="g268">
        <g
           clip-path="url(#clip12)"
           clip-rule="nonzero"
           id="g266">
          <path
             style="fill:#ffffff;fill-opacity:1;fill-rule:nonzero;stroke:none"
             d="m 1230.9883,73.453125 c 0,0 18.3008,10.953125 6.4219,23.226563 -11.8789,12.277342 -24.1485,-5.664063 -24.3399,-16.199219 -0.1992,-10.535157 5.1328,-15.828125 17.918,-7.023438"
             id="path264" />
        </g>
      </g>
    </g>
    <g
       clip-path="url(#clip13)"
       clip-rule="nonzero"
       id="g278">
      <g
         clip-path="url(#clip14)"
         clip-rule="nonzero"
         id="g276">
        <g
           clip-path="url(#clip15)"
           clip-rule="nonzero"
           id="g274">
          <path
             style="fill:#ffffff;fill-opacity:1;fill-rule:nonzero;stroke:none"
             d="m 1240.25,68.65625 c 0,0 -1.6133,21.269531 15.2656,18.644531 16.8828,-2.625 9.3008,-22.992187 0.8086,-29.230469 -8.4961,-6.234374 -15.8945,-4.933593 -16.0742,10.585938"
             id="path272" />
        </g>
      </g>
    </g>
    <g
       clip-path="url(#clip16)"
       clip-rule="nonzero"
       id="g286">
      <g
         clip-path="url(#clip17)"
         clip-rule="nonzero"
         id="g284">
        <g
           clip-path="url(#clip18)"
           clip-rule="nonzero"
           id="g282">
          <path
             style="fill:#ffffff;fill-opacity:1;fill-rule:nonzero;stroke:none"
             d="m 1269.625,77.191406 c 0,0 -7.0937,16.328125 6.9102,18.871094 14.0078,2.539062 13.625,-15.59375 8.6445,-22.832031 C 1280.2031,65.996094 1274.0234,65 1269.625,77.191406"
             id="path280" />
        </g>
      </g>
    </g>
    <g
       clip-path="url(#clip19)"
       clip-rule="nonzero"
       id="g294">
      <g
         clip-path="url(#clip20)"
         clip-rule="nonzero"
         id="g292">
        <g
           clip-path="url(#clip21)"
           clip-rule="nonzero"
           id="g290">
          <path
             style="fill:#30878c;fill-opacity:1;fill-rule:nonzero;stroke:none"
             d="m 1218.7148,102.37109 c 4.168,0.8711 9.0235,3.08985 11.1446,6.94532 1.8633,3.39453 0.5625,7.54687 -1.5391,10.51953 -1.8086,2.57422 -4.7344,3.6914 -7.7969,3.09375 -3.0468,-0.59766 -5.7968,-2.42188 -8.0312,-4.4961 -2.1992,-2.04296 -4.0742,-4.53125 -5.0469,-7.39062 -0.8437,-2.46484 -1.6953,-6.09766 0.4063,-8.20703 1,-1.00781 2.5117,-1.34375 3.8828,-1.4336 2.3554,-0.14843 4.7265,0.35938 6.9804,0.96875 1.1368,0.3086 1.6993,-1.43359 0.5586,-1.74609 -3.6132,-0.976562 -8.4804,-2.050781 -11.8593,0.23047 -2.6524,1.78906 -2.9532,5.0625 -2.4493,7.96484 1.1446,6.5586 6.1954,12.19922 12.1641,14.91797 2.7852,1.27344 5.9922,1.65235 8.8594,0.40235 3.418,-1.49219 5.5586,-5.35547 6.3359,-8.83204 0.7617,-3.41406 -0.2226,-6.72265 -2.6054,-9.24609 -1.9883,-2.10547 -4.6758,-3.49609 -7.3594,-4.50391 -1.0039,-0.375 -2.0391,-0.71093 -3.086,-0.92968 -1.1484,-0.24219 -1.7148,1.5 -0.5586,1.74218"
             id="path288" />
        </g>
      </g>
    </g>
    <g
       clip-path="url(#clip22)"
       clip-rule="nonzero"
       id="g302">
      <g
         clip-path="url(#clip23)"
         clip-rule="nonzero"
         id="g300">
        <g
           clip-path="url(#clip24)"
           clip-rule="nonzero"
           id="g298">
          <path
             style="fill:#30878c;fill-opacity:1;fill-rule:nonzero;stroke:none"
             d="m 1228.2695,73.460938 c 2.9297,1.757812 5.5938,4.222656 7.5743,6.988281 1.5156,2.109375 2.5312,4.648437 2.4218,7.273437 -0.1445,3.429688 -2.3515,6.398438 -4.832,8.59375 -10.3047,9.125004 -20.957,-6.324218 -21.6445,-15.832031 -0.2422,-3.335937 0.023,-8.417969 3.1679,-10.492187 1.5078,-0.996094 3.3907,-0.964844 5.0899,-0.582032 2.9922,0.671875 5.7226,2.34375 8.2226,4.050782 0.9766,0.664062 1.9571,-0.882813 0.9805,-1.550782 -3.3633,-2.296875 -7.5234,-4.8125 -11.7812,-4.5625 -3.0391,0.179688 -5.2032,2.089844 -6.3829,4.804688 -1.2773,2.9375 -1.4101,6.546875 -0.9843,9.679687 0.3789,2.8125 1.3867,5.5625 2.664,8.085938 2.4961,4.925781 6.6992,9.890625 12.4063,10.910161 6.3554,1.14062 12.707,-4.664068 14.4687,-10.39063 2.336,-7.597656 -4.3437,-14.894531 -10.3906,-18.523438 -1.0117,-0.605468 -1.9961,0.9375 -0.9805,1.546876"
             id="path296" />
        </g>
      </g>
    </g>
    <g
       clip-path="url(#clip25)"
       clip-rule="nonzero"
       id="g310">
      <g
         clip-path="url(#clip26)"
         clip-rule="nonzero"
         id="g308">
        <g
           clip-path="url(#clip27)"
           clip-rule="nonzero"
           id="g306">
          <path
             style="fill:#30878c;fill-opacity:1;fill-rule:nonzero;stroke:none"
             d="m 1237.1055,67.84375 c -0.2539,3.445312 0.1953,7.121094 1.2734,10.390625 0.8594,2.621094 2.2422,5.089844 4.3945,6.859375 2.5235,2.074219 5.7891,2.753906 9,2.523438 3.293,-0.234376 6.6875,-1.21875 9.1602,-3.503907 1.9961,-1.847656 3.0156,-4.4375 3.2891,-7.101562 0.5937,-5.769531 -2.0821,-11.785157 -5.4766,-16.296875 -1.4922,-1.984375 -3.2773,-3.640625 -5.3438,-5.011719 -2.2968,-1.527344 -5.0429,-2.855469 -7.8671,-2.804687 -7.2969,0.128906 -8.3438,9.496093 -8.4297,14.945312 -0.016,1.179688 1.8125,1.269531 1.832,0.08984 0.059,-3.835938 0.2617,-8.917969 3.2109,-11.816406 2.1133,-2.074219 5.168,-1.449219 7.6055,-0.371094 5.5352,2.445312 9.3281,7.59375 11.4024,13.128906 1.8164,4.847656 2.246,11.171875 -2.3477,14.628906 -2.6641,2.003906 -6.5703,2.585938 -9.7969,2.253906 -2.832,-0.292968 -5.3554,-1.800781 -6.9765,-4.128906 -2.6524,-3.796875 -3.4375,-9.132812 -3.0977,-13.695312 0.09,-1.179688 -1.7422,-1.265625 -1.832,-0.08984"
             id="path304" />
        </g>
      </g>
    </g>
    <g
       clip-path="url(#clip28)"
       clip-rule="nonzero"
       id="g318">
      <g
         clip-path="url(#clip29)"
         clip-rule="nonzero"
         id="g316">
        <g
           clip-path="url(#clip30)"
           clip-rule="nonzero"
           id="g314">
          <path
             style="fill:#30878c;fill-opacity:1;fill-rule:nonzero;stroke:none"
             d="m 1266.5273,76.144531 c -1.7539,4.058594 -2.6289,9.273438 -1.0703,13.488281 1.3086,3.535157 4.4297,5.609376 8.0118,6.417969 3.4218,0.773438 7.1367,0.484375 9.8554,-1.929687 2.3516,-2.089844 3.3125,-5.339844 3.6094,-8.367188 0.3203,-3.296875 -0.1719,-6.742187 -1.2773,-9.855468 -1.7813,-5.019532 -7.7149,-12.734376 -13.6524,-8.457032 -2.8164,2.023438 -4.3281,5.5625 -5.4766,8.703125 -0.4062,1.113281 1.3399,1.660157 1.7461,0.550781 1.1446,-3.132812 3.0743,-8.125 6.9493,-8.652343 3.0039,-0.410157 5.6757,2.953125 7.0976,5.113281 1.7266,2.621094 2.5156,5.835938 2.7969,8.929688 0.2851,3.074218 -0.078,6.480468 -1.7461,9.148437 -1.7031,2.722656 -4.6992,3.597656 -7.7656,3.320313 -3.5782,-0.324219 -6.9688,-1.992188 -8.3867,-5.421876 -1.5704,-3.785156 -0.5274,-8.785156 1.0546,-12.4375 0.4688,-1.085937 -1.2812,-1.625 -1.7461,-0.550781"
             id="path312" />
        </g>
      </g>
    </g>
    <g
       clip-path="url(#clip31)"
       clip-rule="nonzero"
       id="g326">
      <g
         clip-path="url(#clip32)"
         clip-rule="nonzero"
         id="g324">
        <g
           clip-path="url(#clip33)"
           clip-rule="nonzero"
           id="g322">
          <path
             style="fill:#30878c;fill-opacity:1;fill-rule:nonzero;stroke:none"
             d="m 1279.5156,103.26563 c -0.4414,-0.34766 -0.9062,-0.66407 -1.3672,-0.98829 -0.4062,-0.28515 -1.0078,-0.12109 -1.2617,0.28516 -0.2773,0.4375 -0.1289,0.97656 0.2813,1.26172 0.4609,0.32422 0.9218,0.64062 1.3672,0.98828 0.3906,0.30859 1.0156,0.10156 1.2656,-0.28516 0.2851,-0.45312 0.1055,-0.95312 -0.2852,-1.26171"
             id="path320" />
        </g>
      </g>
    </g>
    <g
       clip-path="url(#clip34)"
       clip-rule="nonzero"
       id="g334">
      <g
         clip-path="url(#clip35)"
         clip-rule="nonzero"
         id="g332">
        <g
           clip-path="url(#clip36)"
           clip-rule="nonzero"
           id="g330">
          <path
             style="fill:#30878c;fill-opacity:1;fill-rule:nonzero;stroke:none"
             d="m 1275.9883,100.79688 c -6.8047,-4.371099 -14.3789,-8.343755 -22.5,-9.464849 -2.9844,-0.414062 -6.4336,-0.425781 -9.1524,1.082031 -0.625,0.347657 -1.2265,0.789063 -1.75,1.277344 0.3594,-0.335937 0.055,-0.03906 -0.078,0.05859 -0.1836,0.148438 -0.3555,0.316406 -0.5156,0.484375 -0.9102,0.953125 -1.6328,2.078125 -2.2656,3.226563 -3.2969,5.980476 -4.6485,13.023446 -5.6563,19.687506 -0.7617,4.99219 -1.3984,10.09765 -0.7422,15.14062 0.4102,3.14453 1.4805,6.30469 3.6328,8.69141 3.4688,3.83984 8.9766,4.23828 13.7852,3.42578 2.1836,-0.36719 4.3164,-1.01172 6.3867,-1.78516 1.4727,-0.55078 2.8438,-1.4375 4.1914,-2.23437 0.7031,-0.41406 1.4492,-0.79688 2.0821,-1.31641 1.0703,-0.875 2.2578,-1.60937 3.4648,-2.28515 1.0117,-0.57422 2.0625,-1.07422 3.1289,-1.53516 1.0703,-0.45703 2.2266,-0.72656 3.2813,-1.19922 1.9921,-0.89062 3.9765,-1.78125 5.9648,-2.67187 0.8594,-0.38282 1.6797,-1.10938 2.4141,-1.6875 0.8984,-0.70704 1.7421,-1.48829 2.5195,-2.32422 1.625,-1.75391 2.9453,-3.79297 3.6875,-6.07422 2.0273,-6.21094 -1.6055,-12.03125 -6.0703,-16.10156 -0.8633,-0.78907 -2.2188,0.44922 -1.3477,1.24218 2.8594,2.60938 5.4453,5.77735 6.0664,9.70313 0.4375,2.75 -0.4414,5.48047 -1.9336,7.77734 -1.3711,2.11328 -3.289,3.91016 -5.3672,5.32422 -1.8593,1.26172 -4.1328,2.00781 -6.1757,2.92188 -1.6407,0.73437 -3.3789,1.21484 -5.0157,1.97656 -1.7539,0.8125 -3.4179,1.80859 -4.9882,2.92969 -0.3321,0.23437 -0.6485,0.47656 -0.9649,0.73437 -0.2148,0.17969 0.1289,-0.0703 0.082,-0.043 -0.1718,0.10547 -0.3398,0.21094 -0.5117,0.3125 -1.3984,0.84766 -2.8047,1.6875 -4.2578,2.4336 -1.8906,0.96875 -4.0781,1.52343 -6.1797,1.95312 -2.3281,0.47656 -4.7226,0.65625 -7.0781,0.29297 -2.332,-0.35938 -4.4687,-1.47266 -6.0234,-3.24609 -2.1485,-2.45704 -2.8985,-5.92188 -3.1407,-9.08985 -0.3906,-5.1875 0.4571,-10.49609 1.3282,-15.59765 0.6601,-3.86719 1.5507,-7.71875 2.8437,-11.42578 0.7227,-2.08204 1.5899,-4.132822 2.7617,-6.007822 0.3321,-0.53125 0.6914,-1.046874 1.0899,-1.53125 -0.1641,0.203126 0.1953,-0.21875 0.2812,-0.304687 0.1016,-0.109375 0.211,-0.210937 0.3203,-0.3125 0.4532,-0.40625 -0.2109,0.222656 0.2813,-0.238281 0.9961,-0.929688 2.1133,-1.332032 3.3867,-1.71875 0.2774,-0.08594 0.5625,-0.136719 0.8477,-0.1875 0.7226,-0.121094 1.0117,-0.128906 1.6992,-0.152344 3.1289,-0.08203 6.2383,0.597656 9.2031,1.523438 5.6953,1.78125 11.0039,4.671874 16.0039,7.882816 0.9922,0.63672 1.9766,-0.91016 0.9805,-1.54687"
             id="path328" />
        </g>
      </g>
    </g>
    <use
       xlink:href="#surface5"
       transform="translate(1187)"
       mask="url(#mask0)"
       id="use336"
       x="0"
       y="0"
       width="100%"
       height="100%" />
    <g
       clip-path="url(#clip41)"
       clip-rule="nonzero"
       id="g344">
      <g
         clip-path="url(#clip42)"
         clip-rule="nonzero"
         id="g342">
        <g
           clip-path="url(#clip43)"
           clip-rule="nonzero"
           id="g340">
          <path
             style="fill:#ffffff;fill-opacity:1;fill-rule:nonzero;stroke:none"
             d="m 1150.418,95.808594 c 4.9648,-6.429688 10.25,-20.886719 -13.418,-25.917969 -22.4102,-4.765625 -29.8906,1.550781 -29.8906,1.550781 -1.8555,1.027344 -2.8594,3.195313 -2.8594,3.195313 0,0 -4.418,6.234375 1.7813,29.878911 6.5078,24.79687 21.5742,15.09375 27.7851,9.58593 1.2227,-1.08593 4.2656,-5.0625 4.2656,-5.0625 0,0 2.375,-4.46093 7.6641,-8.57031 l 4.6719,-4.660156"
             id="path338" />
        </g>
      </g>
    </g>
    <g
       clip-path="url(#clip44)"
       clip-rule="nonzero"
       id="g352">
      <g
         clip-path="url(#clip45)"
         clip-rule="nonzero"
         id="g350">
        <g
           clip-path="url(#clip46)"
           clip-rule="nonzero"
           id="g348">
          <path
             style="fill:#ffffff;fill-opacity:1;fill-rule:nonzero;stroke:none"
             d="m 1084.5625,90.253906 c 0,0 17.582,-2.804687 16.5547,11.390624 -1.0313,14.19922 -18.4922,9.3125 -24.2617,2.6875 -5.7696,-6.621092 -5.1953,-12.855468 7.707,-14.078124"
             id="path346" />
        </g>
      </g>
    </g>
    <g
       clip-path="url(#clip47)"
       clip-rule="nonzero"
       id="g360">
      <g
         clip-path="url(#clip48)"
         clip-rule="nonzero"
         id="g358">
        <g
           clip-path="url(#clip49)"
           clip-rule="nonzero"
           id="g356">
          <path
             style="fill:#ffffff;fill-opacity:1;fill-rule:nonzero;stroke:none"
             d="m 1083.457,59.851562 c 0,0 21,3.734376 14.2539,19.429688 -6.7461,15.695312 -24.5859,3.28125 -28.5078,-6.5 -3.9258,-9.777344 -0.8203,-16.621094 14.2539,-12.929688"
             id="path354" />
        </g>
      </g>
    </g>
    <g
       clip-path="url(#clip50)"
       clip-rule="nonzero"
       id="g368">
      <g
         clip-path="url(#clip51)"
         clip-rule="nonzero"
         id="g366">
        <g
           clip-path="url(#clip52)"
           clip-rule="nonzero"
           id="g364">
          <path
             style="fill:#ffffff;fill-opacity:1;fill-rule:nonzero;stroke:none"
             d="m 1090.4102,52.074219 c 0,0 6.0468,20.457031 20.8945,12.007812 14.8476,-8.449219 0.5273,-24.796875 -9.6289,-27.609375 -10.1524,-2.8125 -16.6094,1.03125 -11.2656,15.601563"
             id="path362" />
        </g>
      </g>
    </g>
    <g
       clip-path="url(#clip53)"
       clip-rule="nonzero"
       id="g376">
      <g
         clip-path="url(#clip54)"
         clip-rule="nonzero"
         id="g374">
        <g
           clip-path="url(#clip55)"
           clip-rule="nonzero"
           id="g372">
          <path
             style="fill:#ffffff;fill-opacity:1;fill-rule:nonzero;stroke:none"
             d="m 1120.9023,49.617188 c 0,0 -0.832,17.789062 13.1641,15.1875 13.9961,-2.601563 7.1992,-19.414063 -0.027,-24.410157 -7.2266,-5 -13.3555,-3.734375 -13.1368,9.222657"
             id="path370" />
        </g>
      </g>
    </g>
    <g
       clip-path="url(#clip56)"
       clip-rule="nonzero"
       id="g384">
      <g
         clip-path="url(#clip57)"
         clip-rule="nonzero"
         id="g382">
        <g
           clip-path="url(#clip58)"
           clip-rule="nonzero"
           id="g380">
          <path
             style="fill:#30878c;fill-opacity:1;fill-rule:nonzero;stroke:none"
             d="m 1082.2539,91.238281 c 4.207,-0.664062 9.5313,-0.316406 12.8867,2.535157 2.9492,2.511718 3.2032,6.855472 2.3008,10.382812 -0.7812,3.04688 -3.1172,5.13281 -6.1953,5.66016 -3.0586,0.52343 -6.2773,-0.20313 -9.1055,-1.35157 -2.7773,-1.1289 -5.414,-2.78906 -7.3398,-5.11328 -1.6641,-2.0039 -3.75,-5.10156 -2.5352,-7.816404 0.5782,-1.300781 1.8711,-2.152344 3.1211,-2.722656 2.1485,-0.972656 4.543,-1.339844 6.8672,-1.574219 1.1758,-0.113281 1.082,-1.941406 -0.098,-1.828125 -3.7227,0.371094 -8.6563,1.09375 -11.004,4.425782 -1.8437,2.613281 -0.9648,5.78125 0.543,8.316402 3.3945,5.72657 10.1211,9.20313 16.668,9.625 3.0586,0.19922 6.1875,-0.58593 8.4219,-2.76953 2.6679,-2.60937 3.2968,-6.98437 2.7851,-10.50781 -0.4961,-3.460938 -2.5937,-6.207031 -5.7187,-7.71875 -2.6055,-1.257812 -5.6094,-1.605469 -8.4766,-1.59375 -1.0703,0.0039 -2.1602,0.05859 -3.2187,0.226562 -1.1563,0.179688 -1.0704,2.007813 0.098,1.824219"
             id="path378" />
        </g>
      </g>
    </g>
    <g
       clip-path="url(#clip59)"
       clip-rule="nonzero"
       id="g392">
      <g
         clip-path="url(#clip60)"
         clip-rule="nonzero"
         id="g390">
        <g
           clip-path="url(#clip61)"
           clip-rule="nonzero"
           id="g388">
          <path
             style="fill:#30878c;fill-opacity:1;fill-rule:nonzero;stroke:none"
             d="m 1080.918,60.820312 c 3.3633,0.601563 6.7304,1.960938 9.5625,3.839844 2.1679,1.433594 4.0195,3.449219 4.8476,5.941406 1.086,3.257813 0.074,6.816407 -1.4648,9.753907 -6.3906,12.1875 -21.836,1.527343 -25.8555,-7.117188 -1.4101,-3.03125 -2.9687,-7.878906 -0.7656,-10.929687 1.0586,-1.46875 2.8281,-2.109375 4.5547,-2.355469 3.0351,-0.429687 6.1758,0.160156 9.1211,0.867187 1.1484,0.277344 1.5156,-1.519531 0.3672,-1.796874 -3.9571,-0.953126 -8.7422,-1.824219 -12.6329,-0.07813 -2.7773,1.242188 -4.121,3.800782 -4.2617,6.753907 -0.1484,3.199219 1.0078,6.621093 2.5196,9.398437 1.3554,2.496094 3.2695,4.710938 5.3632,6.613282 4.0821,3.71875 9.7696,6.867187 15.4688,5.792968 6.3476,-1.191406 10.2226,-8.871094 9.8359,-14.851562 -0.5156,-7.933594 -9.3515,-12.382813 -16.289,-13.628906 -1.1641,-0.207032 -1.5352,1.585937 -0.3711,1.796874"
             id="path386" />
        </g>
      </g>
    </g>
    <g
       clip-path="url(#clip62)"
       clip-rule="nonzero"
       id="g400">
      <g
         clip-path="url(#clip63)"
         clip-rule="nonzero"
         id="g398">
        <g
           clip-path="url(#clip64)"
           clip-rule="nonzero"
           id="g396">
          <path
             style="fill:#30878c;fill-opacity:1;fill-rule:nonzero;stroke:none"
             d="m 1087.1836,52.429688 c 0.9844,3.3125 2.7109,6.589843 4.8789,9.265624 1.7383,2.140626 3.9063,3.960938 6.5469,4.847657 3.0976,1.042969 6.3867,0.519531 9.3086,-0.835938 2.9961,-1.390625 5.8203,-3.511719 7.3164,-6.53125 1.2109,-2.433593 1.2422,-5.21875 0.5547,-7.804687 -1.4922,-5.605469 -6.1328,-10.277344 -10.9063,-13.289063 -2.0976,-1.324219 -4.3594,-2.238281 -6.7773,-2.789062 -2.6914,-0.609375 -5.7266,-0.875 -8.3516,0.175781 -6.7734,2.710938 -4.4258,11.839844 -2.5703,16.960938 0.4023,1.109374 2.1484,0.546874 1.7461,-0.566407 -1.3086,-3.601562 -2.9258,-8.429687 -1.1992,-12.183593 1.2422,-2.691407 4.3203,-3.191407 6.9804,-3.050782 6.043,0.320313 11.418,3.789063 15.3243,8.222656 3.4179,3.890626 6.0664,9.648438 3,14.511719 -1.7774,2.820313 -5.2227,4.75 -8.3594,5.585938 -2.75,0.730469 -5.6445,0.21875 -7.9883,-1.378907 -3.8281,-2.609374 -6.457,-7.320312 -7.7578,-11.703124 -0.3399,-1.136719 -2.082,-0.566407 -1.7461,0.5625"
             id="path394" />
        </g>
      </g>
    </g>
    <g
       clip-path="url(#clip65)"
       clip-rule="nonzero"
       id="g408">
      <g
         clip-path="url(#clip66)"
         clip-rule="nonzero"
         id="g406">
        <g
           clip-path="url(#clip67)"
           clip-rule="nonzero"
           id="g404">
          <path
             style="fill:#30878c;fill-opacity:1;fill-rule:nonzero;stroke:none"
             d="m 1117.6367,49.742188 c -0.1992,4.417968 0.836,9.605468 3.7891,12.992187 2.4765,2.835937 6.1328,3.667969 9.7695,3.152344 3.4727,-0.492188 6.8438,-2.085938 8.5274,-5.304688 1.4531,-2.792969 1.1992,-6.167969 0.4023,-9.105469 -0.8711,-3.195312 -2.5547,-6.242187 -4.6953,-8.761718 -3.4492,-4.058594 -11.7344,-9.160156 -15.7656,-3.054688 -1.9141,2.890625 -2.0703,6.738282 -2.0274,10.082032 0.012,1.183593 1.8399,1.074218 1.8281,-0.105469 -0.043,-3.335938 -0.016,-8.683594 3.4219,-10.558594 2.6641,-1.449219 6.3555,0.746094 8.4492,2.261719 2.5469,1.835937 4.4258,4.5625 5.7891,7.351562 1.3555,2.773438 2.2266,6.085938 1.6133,9.171875 -0.6211,3.152344 -3.1133,5.03125 -6.0781,5.863281 -3.461,0.96875 -7.2188,0.613282 -9.7657,-2.085937 -2.8125,-2.984375 -3.6093,-8.027344 -3.4297,-12.003906 0.051,-1.179688 -1.7773,-1.0625 -1.8281,0.105469"
             id="path402" />
        </g>
      </g>
    </g>
    <g
       clip-path="url(#clip68)"
       clip-rule="nonzero"
       id="g416">
      <g
         clip-path="url(#clip69)"
         clip-rule="nonzero"
         id="g414">
        <g
           clip-path="url(#clip70)"
           clip-rule="nonzero"
           id="g412">
          <path
             style="fill:#30878c;fill-opacity:1;fill-rule:nonzero;stroke:none"
             d="m 1139.4102,70.480469 c -0.5391,-0.167969 -1.0821,-0.300781 -1.6289,-0.4375 -0.4805,-0.121094 -0.9844,0.246093 -1.0782,0.714843 -0.1054,0.507813 0.2266,0.957032 0.711,1.082032 0.5468,0.136718 1.0898,0.269531 1.6289,0.4375 0.4765,0.148437 0.9883,-0.265625 1.082,-0.71875 0.1055,-0.527344 -0.2383,-0.925782 -0.7148,-1.078125"
             id="path410" />
        </g>
      </g>
    </g>
    <g
       clip-path="url(#clip71)"
       clip-rule="nonzero"
       id="g424">
      <g
         clip-path="url(#clip72)"
         clip-rule="nonzero"
         id="g422">
        <g
           clip-path="url(#clip73)"
           clip-rule="nonzero"
           id="g420">
          <path
             style="fill:#30878c;fill-opacity:1;fill-rule:nonzero;stroke:none"
             d="m 1135.2344,69.425781 c -7.9102,-1.667969 -16.4024,-2.691406 -24.3946,-0.859375 -2.9375,0.675782 -6.164,1.890625 -8.1679,4.265625 -0.461,0.546875 -0.8672,1.175781 -1.1836,1.816407 0.2148,-0.445313 0.035,-0.05859 -0.051,0.08203 -0.1211,0.203125 -0.2227,0.421875 -0.3125,0.636719 -0.5117,1.214843 -0.7852,2.523437 -0.9687,3.820312 -0.961,6.757812 0.2773,13.824219 1.6992,20.410156 1.0664,4.941405 2.2812,9.941405 4.6836,14.417975 1.5,2.79296 3.6289,5.37109 6.4882,6.83593 4.6055,2.35938 9.8946,0.77344 14.0977,-1.69531 1.9141,-1.11719 3.6758,-2.47656 5.3398,-3.9375 1.1797,-1.03516 2.1485,-2.35156 3.125,-3.57422 0.5079,-0.63672 1.0704,-1.26172 1.4805,-1.97265 0.6875,-1.19922 1.5391,-2.30469 2.4258,-3.36719 0.7422,-0.89453 1.5469,-1.73438 2.3789,-2.54297 0.8359,-0.80859 1.8242,-1.47266 2.6445,-2.28906 1.543,-1.539067 3.0821,-3.07813 4.625,-4.613286 0.6641,-0.667969 1.1758,-1.636719 1.6563,-2.4375 0.5898,-0.980469 1.0976,-2.007813 1.5273,-3.066406 0.8985,-2.21875 1.4063,-4.59375 1.293,-6.988281 -0.3125,-6.527344 -5.7734,-10.679688 -11.3945,-12.898438 -1.086,-0.429688 -1.9141,1.210938 -0.8164,1.644531 3.5976,1.417969 7.1406,3.464844 9.1171,6.914063 1.3829,2.414062 1.5313,5.28125 0.9493,7.957031 -0.5313,2.460937 -1.6836,4.824219 -3.125,6.882813 -1.2891,1.839843 -3.1485,3.34375 -4.7344,4.925781 -1.2734,1.269532 -2.7266,2.335942 -3.9844,3.628912 -1.3515,1.38281 -2.5547,2.90234 -3.625,4.51171 -0.2226,0.33594 -0.4375,0.67579 -0.6367,1.02735 -0.1367,0.24609 0.094,-0.11328 0.059,-0.0664 -0.1211,0.15625 -0.2461,0.31641 -0.3672,0.47266 -1.0039,1.28906 -2.0234,2.57031 -3.1172,3.78515 -1.4219,1.57813 -3.2695,2.875 -5.082,4.01954 -2.0039,1.27343 -4.1797,2.29296 -6.5117,2.78906 -2.3086,0.49219 -4.6993,0.21094 -6.7813,-0.89453 -2.8867,-1.53516 -4.8164,-4.50782 -6.168,-7.38282 -2.207,-4.70703 -3.3007,-9.97265 -4.2968,-15.050779 -0.7578,-3.851562 -1.2891,-7.765624 -1.4024,-11.691406 -0.062,-2.207031 0.02,-4.425781 0.4492,-6.597656 0.1211,-0.613281 0.2735,-1.222656 0.4766,-1.820312 -0.086,0.25 0.1055,-0.269532 0.1524,-0.382813 0.058,-0.136719 0.121,-0.273437 0.1875,-0.40625 0.2812,-0.542969 -0.1133,0.285156 0.1835,-0.320313 0.5977,-1.222656 1.5,-1.996093 2.5547,-2.808593 0.2266,-0.179688 0.4727,-0.332031 0.7227,-0.476563 0.6328,-0.371094 0.8984,-0.484375 1.5351,-0.746094 2.8946,-1.191406 6.043,-1.660156 9.1446,-1.84375 5.957,-0.363281 11.9453,0.457032 17.7578,1.679688 1.1562,0.246094 1.5234,-1.550781 0.3672,-1.792969"
             id="path418" />
        </g>
      </g>
    </g>
  </g>
</svg>
